<svg width="146" height="56" viewBox="0 0 146 56" fill="none" xmlns="http://www.w3.org/2000/svg">
<path d="M1.32 47.5899C0.94 47.3499 0.75 46.9699 0.75 46.4499C0.75 45.9299 1.13 45.1399 1.89 44.0799C2.11 43.7399 2.46 43.5699 2.94 43.5699C3.44 43.5699 4.11 43.8199 4.95 44.3199C5.79 44.7999 6.55 45.0399 7.23 45.0399C8.45 45.0399 9.06 44.7999 9.06 44.3199C9.06 43.9399 8.39 43.6599 7.05 43.4799C5.79 43.2999 4.54 42.8299 3.3 42.0699C2.72 41.7099 2.24 41.1499 1.86 40.3899C1.48 39.6099 1.29 38.6899 1.29 37.6299C1.29 34.4699 3.46 32.8899 7.8 32.8899C9.22 32.8899 10.68 33.2299 12.18 33.9099C12.88 34.2299 13.23 34.6299 13.23 35.1099C13.23 35.5899 13.01 36.1799 12.57 36.8799C12.13 37.5799 11.68 37.9299 11.22 37.9299C10.98 37.9299 10.53 37.7799 9.87 37.4799C9.23 37.1799 8.53 37.0299 7.77 37.0299C6.59 37.0299 6 37.2499 6 37.6899C6 38.2899 6.68 38.6799 8.04 38.8599C9.36 38.9999 10.64 39.3799 11.88 39.9999C12.46 40.2799 12.94 40.7699 13.32 41.4699C13.72 42.1499 13.92 43.0099 13.92 44.0499C13.92 45.0899 13.72 45.9799 13.32 46.7199C12.94 47.4399 12.4 47.9799 11.7 48.3399C10.42 48.9599 8.81 49.2699 6.87 49.2699C4.95 49.2699 3.1 48.7099 1.32 47.5899ZM25.8977 47.0199C25.1377 48.0199 23.9277 48.5199 22.2677 48.5199C20.6077 48.5199 19.0477 47.7599 17.5877 46.2399C16.1477 44.6999 15.4277 42.9099 15.4277 40.8699C15.4277 38.8299 16.1577 37.0399 17.6177 35.4999C19.0777 33.9599 20.6777 33.1899 22.4177 33.1899C23.0977 33.1899 23.7177 33.3199 24.2777 33.5799C24.8377 33.8199 25.2177 34.0499 25.4177 34.2699C25.6377 34.4699 25.8077 34.6599 25.9277 34.8399C25.9877 34.2799 26.1877 33.8599 26.5277 33.5799C26.8877 33.2799 27.4577 33.1299 28.2377 33.1299C29.0177 33.1299 29.5877 33.1899 29.9477 33.3099C30.3077 33.4299 30.5577 33.6399 30.6977 33.9399C30.8577 34.2199 30.9477 34.4699 30.9677 34.6899C31.0077 34.9099 31.0277 35.2499 31.0277 35.7099V48.1299C31.0277 50.4299 30.2277 52.2799 28.6277 53.6799C27.0277 55.0999 25.2277 55.8099 23.2277 55.8099C21.7077 55.8099 20.2577 55.4399 18.8777 54.6999C17.4977 53.9599 16.8077 53.2899 16.8077 52.6899C16.8077 51.9099 17.1077 51.2199 17.7077 50.6199C18.0877 50.1999 18.3777 49.9099 18.5777 49.7499C18.7977 49.5899 19.0477 49.5099 19.3277 49.5099C19.6077 49.5099 19.8977 49.6299 20.1977 49.8699C21.1577 50.6099 22.1977 50.9799 23.3177 50.9799C24.0777 50.9799 24.6977 50.6799 25.1777 50.0799C25.6577 49.4799 25.8977 48.7599 25.8977 47.9199V47.0199ZM20.5577 40.8999C20.5577 41.5399 20.8077 42.1199 21.3077 42.6399C21.8277 43.1599 22.4477 43.4199 23.1677 43.4199C23.9077 43.4199 24.5177 43.1599 24.9977 42.6399C25.4777 42.0999 25.7177 41.5199 25.7177 40.8999C25.7177 40.2599 25.4877 39.6699 25.0277 39.1299C24.5677 38.5699 23.9477 38.2899 23.1677 38.2899C22.3877 38.2899 21.7577 38.5599 21.2777 39.0999C20.7977 39.6399 20.5577 40.2399 20.5577 40.8999ZM47.0166 27.8199C47.1766 27.5199 47.4466 27.3099 47.8266 27.1899C48.2066 27.0699 48.6866 27.0099 49.2666 27.0099C49.8466 27.0099 50.3066 27.0599 50.6466 27.1599C50.9866 27.2599 51.2466 27.3799 51.4266 27.5199C51.6066 27.6599 51.7466 27.8599 51.8466 28.1199C51.9466 28.4599 51.9966 28.9799 51.9966 29.6799V46.3299C51.9966 46.7899 51.9766 47.1399 51.9366 47.3799C51.9166 47.5999 51.8266 47.8599 51.6666 48.1599C51.3866 48.6999 50.6066 48.9699 49.3266 48.9699C47.9266 48.9699 47.1066 48.5999 46.8666 47.8599C46.7466 47.5199 46.6866 46.9999 46.6866 46.2999V40.2099H38.7366V46.3299C38.7366 46.7899 38.7166 47.1399 38.6766 47.3799C38.6566 47.5999 38.5666 47.8599 38.4066 48.1599C38.1266 48.6999 37.3466 48.9699 36.0666 48.9699C34.6666 48.9699 33.8466 48.5999 33.6066 47.8599C33.4866 47.5199 33.4266 46.9999 33.4266 46.2999V29.6499C33.4266 29.1899 33.4366 28.8499 33.4566 28.6299C33.4966 28.3899 33.5966 28.1199 33.7566 27.8199C34.0366 27.2799 34.8166 27.0099 36.0966 27.0099C37.4966 27.0099 38.3266 27.3799 38.5866 28.1199C38.6866 28.4599 38.7366 28.9799 38.7366 29.6799V35.7999H46.6866V29.6499C46.6866 29.1899 46.6966 28.8499 46.7166 28.6299C46.7566 28.3899 46.8566 28.1199 47.0166 27.8199ZM97.3868 33.3099C98.6668 33.8699 99.3068 34.5599 99.3068 35.3799C99.3068 35.7199 99.1468 36.2699 98.8268 37.0299C98.5068 37.7699 98.2368 38.4199 98.0168 38.9799L94.7168 47.0199C94.4168 47.8999 93.9168 48.5199 93.2168 48.8799C92.9168 49.0199 92.5368 49.0899 92.0768 49.0899C91.6168 49.0899 91.1668 48.9199 90.7268 48.5799C90.3068 48.2199 90.0268 47.8599 89.8868 47.4999L89.6468 46.9899C89.4868 46.5899 88.8968 45.0299 87.8768 42.3099C87.6768 42.7899 87.3768 43.5799 86.9768 44.6799C86.5968 45.7599 86.3468 46.4399 86.2268 46.7199C86.1268 46.9799 86.0568 47.1599 86.0168 47.2599C85.9968 47.3399 85.9168 47.4999 85.7768 47.7399C85.6368 47.9799 85.4768 48.1899 85.2968 48.3699C84.8168 48.8499 84.2668 49.0899 83.6468 49.0899C83.0268 49.0899 82.5068 48.9199 82.0868 48.5799C81.6668 48.2199 81.3868 47.8599 81.2468 47.4999L76.7168 36.4599C76.5168 35.8599 76.4168 35.4699 76.4168 35.2899C76.4168 34.4899 76.9868 33.8599 78.1268 33.3999C78.7668 33.1399 79.2868 33.0099 79.6868 33.0099C80.0868 33.0099 80.4068 33.0999 80.6468 33.2799C80.9068 33.4399 81.0868 33.6099 81.1868 33.7899C81.2868 33.9499 81.3668 34.1199 81.4268 34.2999C81.7668 35.0999 82.4768 36.9799 83.5568 39.9399L85.3268 35.0799C85.4468 34.6799 85.6668 34.3299 85.9868 34.0299C86.5668 33.4499 87.1568 33.1599 87.7568 33.1599C88.3568 33.1599 88.8668 33.3199 89.2868 33.6399C89.7268 33.9599 90.0268 34.2799 90.1868 34.5999L90.4268 35.1099C91.4268 37.9099 92.0168 39.5099 92.1968 39.9099L94.0268 34.9299C94.5068 33.6499 95.2268 33.0099 96.1868 33.0099C96.5668 33.0099 96.9668 33.1099 97.3868 33.3099ZM110.256 41.0799L114.246 44.3799C114.746 44.7999 115.056 45.1199 115.176 45.3399C115.316 45.5599 115.386 45.7699 115.386 45.9699C115.386 46.4499 115.076 47.0999 114.456 47.9199C113.776 48.7599 113.176 49.1799 112.656 49.1799C112.216 49.1799 111.606 48.8899 110.826 48.3099L110.526 48.0999C110.066 47.7199 109.356 47.0599 108.396 46.1199C107.436 45.1599 106.706 44.4799 106.206 44.0799V46.3899C106.206 46.8499 106.186 47.1999 106.146 47.4399C106.126 47.6599 106.036 47.9199 105.876 48.2199C105.616 48.7399 104.846 48.9999 103.566 48.9999C102.306 48.9999 101.536 48.7299 101.256 48.1899C101.116 47.8899 101.026 47.6299 100.986 47.4099C100.966 47.1699 100.956 46.8199 100.956 46.3599V28.3899C100.956 27.9299 100.966 27.5899 100.986 27.3699C101.026 27.1299 101.116 26.8599 101.256 26.5599C101.536 26.0199 102.316 25.7499 103.596 25.7499C104.556 25.7499 105.236 25.9199 105.636 26.2599C105.976 26.5399 106.156 26.9799 106.176 27.5799C106.196 27.7599 106.206 28.0399 106.206 28.4199V37.9299C106.566 37.6299 107.106 37.1199 107.826 36.3999C108.566 35.6799 109.116 35.1699 109.476 34.8699L109.836 34.6299C110.536 34.0899 111.136 33.8199 111.636 33.8199C112.136 33.8199 112.706 34.2299 113.346 35.0499C114.006 35.8499 114.336 36.4799 114.336 36.9399C114.336 37.3999 113.966 37.9399 113.226 38.5599L110.256 41.0799ZM131.372 39.2199C131.372 40.4399 131.062 41.3499 130.442 41.9499C129.842 42.5299 129.172 42.8199 128.432 42.8199H121.322C121.322 43.3799 121.652 43.8499 122.312 44.2299C122.972 44.6099 123.632 44.7999 124.292 44.7999C125.452 44.7999 126.362 44.6799 127.022 44.4399L127.352 44.3199C127.832 44.0999 128.232 43.9899 128.552 43.9899C129.192 43.9899 129.742 44.4399 130.202 45.3399C130.462 45.8799 130.592 46.3399 130.592 46.7199C130.592 48.4999 128.462 49.3899 124.202 49.3899C122.722 49.3899 121.402 49.1399 120.242 48.6399C119.102 48.1199 118.212 47.4399 117.572 46.5999C116.312 44.9799 115.682 43.1699 115.682 41.1699C115.682 38.6499 116.492 36.6399 118.112 35.1399C119.752 33.6199 121.792 32.8599 124.232 32.8599C127.012 32.8599 129.052 33.8399 130.352 35.7999C131.032 36.8399 131.372 37.9799 131.372 39.2199ZM125.042 40.0899C125.802 40.0899 126.182 39.7699 126.182 39.1299C126.182 38.6699 126.002 38.2999 125.642 38.0199C125.302 37.7399 124.802 37.5999 124.142 37.5999C123.502 37.5999 122.862 37.8699 122.222 38.4099C121.582 38.9299 121.262 39.4899 121.262 40.0899H125.042ZM144.069 33.3699C144.449 33.4899 144.759 33.6999 144.999 33.9999C145.259 34.2799 145.389 34.7399 145.389 35.3799C145.389 36.0199 145.199 36.7199 144.819 37.4799C144.439 38.2399 143.889 38.6199 143.169 38.6199C142.809 38.6199 142.459 38.5399 142.119 38.3799C141.799 38.2199 141.369 38.1399 140.829 38.1399C140.289 38.1399 139.779 38.3299 139.299 38.7099C138.839 39.0899 138.609 39.5499 138.609 40.0899V46.3899C138.609 46.8499 138.589 47.1999 138.549 47.4399C138.529 47.6599 138.439 47.9199 138.279 48.2199C137.979 48.7399 137.199 48.9999 135.939 48.9999C134.979 48.9999 134.289 48.8299 133.869 48.4899C133.549 48.2099 133.369 47.7799 133.329 47.1999C133.329 46.9999 133.329 46.7099 133.329 46.3299V35.7999C133.329 35.3399 133.339 34.9999 133.359 34.7799C133.399 34.5399 133.489 34.2799 133.629 33.9999C133.909 33.4599 134.689 33.1899 135.969 33.1899C137.169 33.1899 137.919 33.4199 138.219 33.8799C138.439 34.1999 138.549 34.5299 138.549 34.8699C138.649 34.7299 138.789 34.5599 138.969 34.3599C139.169 34.1599 139.579 33.8899 140.199 33.5499C140.819 33.2099 141.359 33.0399 141.819 33.0399C142.299 33.0399 142.699 33.0699 143.019 33.1299C143.339 33.1699 143.689 33.2499 144.069 33.3699Z" fill="#FFF1DD"/>
<path d="M107.976 5.29085L99.5928 5.18266C98.8914 5.17361 98.2127 5.4596 97.7294 5.96908C97.2465 6.47783 96.9959 7.17123 97.0417 7.87122L97.6489 17.145C97.7344 18.4508 98.8263 19.4869 100.135 19.5038L102.544 19.5349L102.416 29.4346L102.416 36.7089L102.416 42.8447L104.655 42.8447L104.655 36.7089L104.528 29.4619L104.655 19.5622L107.064 19.5933C107.754 19.6023 108.391 19.3265 108.856 18.8727C109.274 18.4657 109.554 17.9156 109.61 17.2994L110.456 8.04435C110.52 7.34577 110.288 6.64623 109.818 6.12509C109.348 5.60391 108.677 5.29985 107.976 5.29085ZM100.936 17.402L100.162 17.392C99.9487 17.3892 99.7705 17.2201 99.7565 17.007L99.1493 7.73323C99.1391 7.57683 99.2152 7.47155 99.2616 7.42274C99.265 7.41915 99.2687 7.4154 99.2727 7.4115C99.3231 7.36242 99.4205 7.2926 99.5657 7.29443L100.802 7.31038L100.936 17.402ZM104.205 17.4442L103.048 17.4293L102.915 7.33769L104.599 7.35944L104.205 17.4442ZM108.249 7.53877C108.294 7.58872 108.367 7.69589 108.353 7.85201L107.507 17.1071C107.487 17.3197 107.305 17.4842 107.091 17.4814L106.318 17.4714L106.712 7.38661L107.948 7.40257C108.105 7.40463 108.204 7.48878 108.249 7.53877Z" fill="#FFF1DD"/>
<path d="M67.0969 30.1006C66.4295 29.6557 66.0313 28.9114 66.0313 28.1094C66.0313 27.3074 66.4295 26.563 67.0969 26.1181C67.4231 25.9025 67.8577 25.9904 68.072 26.3131C68.2876 26.6365 68.1997 27.0732 67.877 27.2882C67.5975 27.4742 67.4375 27.7736 67.4375 28.1094C67.4375 28.4452 67.5975 28.7446 67.877 28.9307C68.5444 29.3756 68.9426 30.1199 68.9426 30.9219C68.9426 31.7239 68.5444 32.4682 67.877 32.9132C67.548 33.1313 67.1138 33.0365 66.9019 32.7182C66.6863 32.3948 66.7735 31.9587 67.0969 31.7431C67.3764 31.557 67.5364 31.2577 67.5364 30.9219C67.5364 30.586 67.3764 30.2867 67.0969 30.1006Z" fill="#FFF1DD"/>
<path d="M63.1543 30.1006C62.4869 29.6557 62.0886 28.9114 62.0886 28.1094C62.0886 27.3074 62.4869 26.563 63.1543 26.1181C63.4784 25.9025 63.9151 25.9904 64.1293 26.3131C64.345 26.6365 64.2571 27.0732 63.9343 27.2882C63.6549 27.4742 63.4949 27.7736 63.4949 28.1094C63.4949 28.4452 63.6549 28.7446 63.9343 28.9307C64.6017 29.3756 65 30.1199 65 30.9219C65 31.7239 64.6017 32.4682 63.9343 32.9132C63.8142 32.9928 63.6789 33.0313 63.545 33.0313C63.3177 33.0313 63.0946 32.9214 62.9593 32.7182C62.7437 32.3948 62.8309 31.9587 63.1543 31.7431C63.4338 31.557 63.5937 31.2577 63.5937 30.9219C63.5937 30.586 63.4338 30.2867 63.1543 30.1006Z" fill="#FFF1DD"/>
<path d="M59.0656 30.1006C58.3982 29.6557 58 28.9114 58 28.1094C58 27.3074 58.3982 26.563 59.0656 26.1181C59.3897 25.9025 59.8264 25.9904 60.0407 26.3131C60.2563 26.6365 60.1684 27.0732 59.8457 27.2882C59.5662 27.4742 59.4062 27.7736 59.4062 28.1094C59.4062 28.4452 59.5662 28.7446 59.8457 28.9307C60.5131 29.3756 60.9113 30.1199 60.9113 30.9219C60.9113 31.7239 60.5131 32.4682 59.8457 32.9132C59.5167 33.1313 59.0825 33.0365 58.8706 32.7182C58.655 32.3948 58.7423 31.9587 59.0656 31.7431C59.3451 31.557 59.5051 31.2577 59.5051 30.9219C59.5051 30.586 59.3451 30.2867 59.0656 30.1006Z" fill="#FFF1DD"/>
<path d="M55.7516 33.9999H70.8328C71.2482 33.9999 71.5844 34.8386 71.5844 35.8749V39.6249C71.5844 44.7939 69.8985 48.9999 67.8266 48.9999H58.7578C56.6858 48.9999 55 44.7941 55 39.6249V35.8749C55 34.8386 55.3362 33.9999 55.7516 33.9999Z" fill="#FFF1DD"/>
<path d="M76 41.9999C76 44.7614 73.9853 46.9999 71.5 46.9999C69.0147 46.9999 67 44.7614 67 41.9999C67 39.2385 69.0147 36.9999 71.5 36.9999C73.9853 36.9999 76 39.2385 76 41.9999ZM69.2657 41.9999C69.2657 43.371 70.2661 44.4825 71.5 44.4825C72.7339 44.4825 73.7343 43.371 73.7343 41.9999C73.7343 40.6289 72.7339 39.5174 71.5 39.5174C70.2661 39.5174 69.2657 40.6289 69.2657 41.9999Z" fill="#FFF1DD"/>
</svg>
