<svg width="100" height="100" viewBox="0 0 100 100" fill="none" xmlns="http://www.w3.org/2000/svg">
<mask id="mask0" mask-type="alpha" maskUnits="userSpaceOnUse" x="0" y="0" width="100" height="100">
<circle cx="50" cy="50" r="50" fill="#F2B354"/>
</mask>
<g mask="url(#mask0)">
<line x1="9.36568" y1="80.2269" x2="87.3657" y2="16.2269" stroke="#F2B354" stroke-opacity="0.6" stroke-width="2"/>
<path d="M91.4092 14L188.158 132.322L106.749 198.888L10 80.5667L91.4092 14Z" fill="#F2B354" fill-opacity="0.6"/>
<path d="M-8.95378 -101L87.4483 15.2224L2.4021 85.765L-94 -30.4573L-8.95378 -101Z" fill="#F2B354" fill-opacity="0.2"/>
<path d="M48.5 51C55.7979 51 61.7188 44.9531 61.7188 37.5C61.7188 30.0469 55.7979 24 48.5 24C41.2021 24 35.2812 30.0469 35.2812 37.5C35.2812 44.9531 41.2021 51 48.5 51ZM60.25 54H55.192C53.1541 54.9562 50.8867 55.5 48.5 55.5C46.1133 55.5 43.8551 54.9562 41.808 54H36.75C30.26 54 25 59.3719 25 66V67.5C25 69.9844 26.9736 72 29.4062 72H67.5938C70.0264 72 72 69.9844 72 67.5V66C72 59.3719 66.74 54 60.25 54Z" fill="#FF9050"/>
</g>
</svg>
