<svg width="5275" height="5275" viewBox="0 0 5275 5275" fill="none" xmlns="http://www.w3.org/2000/svg">
<path d="M2406.46 595.336C2412.79 549.127 2347.49 510.936 2298.43 507.033C2275.01 505.134 2250.74 508.721 2228.59 501.019C2180.48 484.245 2161.28 422.211 2114.44 402.482C2079.41 387.712 2039 400.794 2005.03 417.885C1971.06 434.976 1937.51 456.498 1899.53 458.925C1866.51 461.035 1830.64 448.375 1801.73 464.938C1780.63 476.965 1768.92 501.758 1748.98 516.422C1729.05 531.087 1704.25 533.83 1680.2 535.096C1656.14 536.362 1631.14 536.678 1609.3 546.701C1587.46 556.723 1569.21 579.933 1573.75 603.565L2406.46 595.336Z" fill="#EBEBEB"/>
<path d="M1146.16 1377.3C1151.85 1335.84 1093.41 1301.66 1049.31 1298.18C1028.21 1296.49 1007.11 1299.65 986.64 1292.69C943.596 1277.71 926.4 1222.11 884.411 1204.39C852.761 1191.1 816.785 1202.91 786.401 1218.21C756.017 1233.51 725.844 1252.81 691.451 1255.03C661.806 1256.93 629.734 1245.96 603.781 1260.41C584.474 1270.96 574.452 1293.43 556.622 1306.51C538.793 1319.59 516.532 1322.02 494.905 1323.29C473.334 1322.86 451.872 1326.44 431.605 1333.84C411.982 1342.8 395.735 1363.69 399.955 1384.9L1146.16 1377.3Z" fill="#F5F5F5"/>
<path d="M5099.66 1347.97C5105.78 1303.56 5043.11 1266.95 4995.95 1263.57C4973.48 1261.78 4950.17 1265.26 4928.85 1257.77C4882.75 1241.73 4864.29 1182.13 4819.35 1162.82C4785.69 1148.68 4746.97 1161.24 4714.37 1177.7C4681.77 1194.15 4649.49 1214.73 4613.09 1217.15C4581.44 1219.16 4546.94 1207.34 4519.2 1222.85C4498.1 1234.35 4487.55 1258.19 4468.66 1272.22C4449.78 1286.26 4425.73 1288.89 4402.62 1290.16C4379.52 1291.43 4355.57 1291.64 4334.57 1301.34C4313.58 1311.05 4296.07 1332.99 4300.5 1355.89L5099.66 1347.97Z" fill="#F5F5F5"/>
<path d="M4438.38 4568.89C4448.79 4573.86 4458.08 4580.88 4465.71 4589.53C4473.34 4598.18 4479.15 4608.27 4482.8 4619.21C4489.98 4641.21 4492 4664.57 4488.71 4687.47C4483.75 4731.78 4458.53 4776.51 4431.42 4811.85C4394.18 4779.36 4385.53 4722.5 4383 4693.48C4378.99 4647.49 4399.67 4562.03 4438.38 4568.89Z" fill="#EE4444"/>
<path d="M4474.78 4884.65C4472.29 4871.99 4473.17 4858.9 4477.31 4846.68C4481.46 4834.47 4488.73 4823.55 4498.41 4815.02C4508.29 4806.73 4519.72 4800.48 4532.04 4796.64C4544.35 4792.8 4557.31 4791.44 4570.15 4792.65C4576.14 4792.54 4582.09 4793.74 4587.56 4796.19C4593.03 4798.63 4597.89 4802.25 4601.8 4806.79C4604.58 4811.6 4606.04 4817.06 4606.04 4822.62C4606.04 4828.17 4604.58 4833.63 4601.8 4838.44C4596.14 4848.09 4588.02 4856.06 4578.28 4861.54C4545.99 4881.8 4510.97 4895.52 4474.46 4884.54" fill="#EE4444"/>
<path d="M4426.98 5020.74C4427.18 5017.69 4427.6 5014.66 4428.25 5011.67C4429.51 5005.24 4430.99 4997.01 4432.79 4987.09C4436.94 4959.68 4445.53 4933.14 4458.21 4908.49C4471.35 4883.88 4490.79 4863.2 4514.55 4848.57C4521.77 4844.15 4529.49 4840.61 4537.55 4838.02C4539.73 4837.32 4541.95 4836.75 4544.19 4836.33C4544.96 4836.19 4545.75 4836.19 4546.51 4836.33C4535.8 4840 4525.48 4844.73 4515.71 4850.47C4492.7 4865.33 4473.86 4885.81 4460.95 4909.97C4448.56 4934.37 4439.81 4960.46 4435 4987.41C4432.79 4997.96 4430.99 5006.08 4429.51 5011.78C4429 5014.85 4428.16 5017.86 4426.98 5020.74V5020.74Z" fill="#263238"/>
<path d="M4428.36 4635.35C4428.54 4636.68 4428.54 4638.03 4428.36 4639.36C4428.36 4642.32 4428.36 4646.01 4429.1 4650.76C4429.62 4660.67 4430.15 4675.02 4430.78 4692.96C4431.94 4728.4 4432.79 4777.36 4432.58 4831.69C4432.37 4886.02 4430.99 4934.97 4429.52 4970.42C4428.88 4988.15 4428.15 5002.07 4427.51 5012.62C4427.51 5017.26 4427.51 5021.06 4426.78 5024.02C4426.76 5025.37 4426.58 5026.71 4426.25 5028.02C4426.09 5026.69 4426.09 5025.35 4426.25 5024.02C4426.25 5021.06 4426.25 5017.26 4426.25 5012.52C4426.25 5001.97 4426.88 4987.93 4427.3 4970.32C4428.15 4934.87 4429.1 4885.92 4429.31 4831.69C4429.52 4777.46 4429.31 4728.51 4428.46 4693.06C4428.46 4675.55 4427.94 4661.41 4427.83 4650.86C4427.83 4646.22 4427.83 4642.42 4427.83 4639.47C4427.84 4638.08 4428.01 4636.7 4428.36 4635.35V4635.35Z" fill="#263238"/>
<path d="M4409.9 4911.97C4405.38 4885.12 4394.54 4859.73 4378.27 4837.9C4362 4816.07 4340.76 4798.43 4316.32 4786.43C4303.87 4780.52 4287.62 4776.62 4277.28 4785.9C4266.94 4795.19 4269.37 4811.75 4274.44 4824.73C4285.45 4851.6 4304.21 4874.59 4328.34 4890.77C4352.46 4906.94 4380.85 4915.57 4409.9 4915.56" fill="#EE4444"/>
<path d="M4322.76 4828.42C4325.51 4829.3 4328.16 4830.47 4330.67 4831.9C4333.76 4833.28 4336.75 4834.87 4339.64 4836.65C4343.56 4838.84 4347.36 4841.23 4351.03 4843.82C4355.55 4846.83 4359.88 4850.1 4364.01 4853.63C4368.88 4857.55 4373.53 4861.74 4377.93 4866.19C4387.96 4876.43 4396.77 4887.79 4404.2 4900.05C4411.52 4912.41 4417.36 4925.58 4421.61 4939.3C4424.85 4950.54 4427.08 4962.05 4428.26 4973.69C4428.89 4978.65 4428.26 4983.19 4428.89 4987.09C4429.08 4990.6 4429.08 4994.13 4428.89 4997.64C4428.84 5000.51 4428.52 5003.37 4427.94 5006.19C4427.2 5006.19 4428.47 4993.95 4426.25 4974.54C4425.62 4969.68 4424.98 4963.99 4423.72 4958.6C4422.45 4953.22 4420.87 4947 4419.08 4940.78C4414.77 4927.37 4408.96 4914.49 4401.78 4902.37C4394.46 4890.33 4385.87 4879.12 4376.14 4868.93C4371.85 4864.49 4367.35 4860.26 4362.63 4856.27C4358.61 4852.72 4354.38 4849.41 4349.97 4846.35C4333.73 4834.22 4322.44 4829.05 4322.76 4828.42Z" fill="#263238"/>
<path d="M1604.23 5033.09C1601.12 5023.24 1598.69 5013.2 1596.95 5003.02C1586.03 4954.85 1569.72 4908.06 1548.31 4863.55C1543.41 4854.46 1539.05 4845.09 1535.23 4835.49C1541.73 4843.57 1547.25 4852.38 1551.69 4861.76C1575.31 4905.88 1591.87 4953.44 1600.75 5002.7C1602.99 5012.68 1604.16 5022.86 1604.23 5033.09V5033.09Z" fill="#263238"/>
<path d="M1697.81 4576.48C1697.35 4582.52 1696.47 4588.51 1695.17 4594.42C1693.06 4605.81 1690.21 4622.38 1686.94 4642.84C1680.19 4683.88 1672.38 4740.64 1667.53 4803.73C1662.68 4866.82 1661.83 4924.32 1662.15 4965.78C1662.15 4986.88 1662.15 5003.34 1663 5014.94C1663.45 5020.95 1663.45 5026.98 1663 5032.98C1661.83 5027.07 1661.16 5021.07 1660.99 5015.05C1660.04 5003.44 1659.09 4986.67 1658.46 4965.89C1656.74 4911.67 1657.98 4857.39 1662.15 4803.31C1666.31 4749.27 1673.35 4695.5 1683.25 4642.21C1687.16 4621.74 1690.53 4605.29 1693.27 4594C1694.34 4588.05 1695.86 4582.2 1697.81 4576.48Z" fill="#263238"/>
<path d="M1848.04 4839.28C1842.61 4848.13 1836.73 4856.68 1830.42 4864.92C1816.52 4885.53 1804.44 4907.31 1794.34 4930.01C1784.44 4952.82 1776.63 4976.48 1771.02 5000.7C1769.19 5010.91 1766.83 5021.01 1763.95 5030.98C1763.77 5020.51 1764.87 5010.06 1767.22 4999.86C1776.47 4950.15 1797.01 4903.22 1827.25 4862.71C1833.13 4854.03 1840.12 4846.16 1848.04 4839.28V4839.28Z" fill="#263238"/>
<path d="M3687.33 4874.1C3692.77 4880.57 3697.44 4887.65 3701.25 4895.2C3709.06 4908.6 3719.19 4927.59 3729.21 4949.01C3739.23 4970.42 3747.25 4990.57 3752.53 5005.13C3755.92 5012.85 3758.33 5020.97 3759.7 5029.29C3755.46 5022.09 3751.92 5014.49 3749.15 5006.61C3743.03 4992.37 3734.49 4972.74 3724.46 4951.33C3714.44 4929.91 3704.95 4910.81 3697.98 4896.99C3693.61 4889.77 3690.04 4882.1 3687.33 4874.1Z" fill="#263238"/>
<path d="M3881.45 4681.46C3880.98 4686.11 3880.06 4690.7 3878.7 4695.17C3876.49 4704.98 3873.64 4717.33 3870.16 4732.1C3863.19 4763.75 3854.65 4806.58 3848.21 4854.9C3841.78 4903.22 3838.82 4947.42 3837.66 4979.28C3837.14 4994.48 3836.71 5007.14 3836.4 5017.16C3836.55 5021.82 3836.2 5026.49 3835.34 5031.08C3834.54 5026.49 3834.15 5021.83 3834.18 5017.16C3834.18 5008.19 3833.65 4995.21 3834.18 4979.18C3834.82 4937.4 3837.89 4895.69 3843.36 4854.27C3848.82 4812.8 3856.71 4771.69 3866.99 4731.15C3871 4715.64 3874.59 4703.19 3877.54 4694.64C3878.33 4690.11 3879.64 4685.69 3881.45 4681.46V4681.46Z" fill="#263238"/>
<path d="M2477.14 4767.33C2480.66 4769.35 2483.89 4771.83 2486.74 4774.72C2495.06 4781.88 2502.98 4789.49 2510.48 4797.51C2560.43 4850.59 2595.73 4915.73 2612.92 4986.56C2615.61 4997.23 2617.65 5008.04 2619.04 5018.95C2619.84 5022.91 2620.19 5026.94 2620.09 5030.98C2619.14 5030.98 2616.5 5014.1 2609.54 4987.62C2590.32 4918.2 2555.46 4854.11 2507.63 4800.25C2489.8 4779.15 2476.51 4768.6 2477.14 4767.33Z" fill="#263238"/>
<path d="M2659.97 4655.08C2660.42 4660.07 2660.42 4665.08 2659.97 4670.06C2659.97 4680.61 2659.97 4694.43 2659.97 4710.79C2659.97 4745.18 2661.34 4792.65 2665.88 4844.98C2670.41 4897.31 2677.38 4944.26 2683.29 4978.12C2686.13 4994.26 2688.56 5007.77 2690.46 5018.21C2691.66 5023.09 2692.36 5028.07 2692.57 5033.09C2690.79 5028.39 2689.38 5023.56 2688.35 5018.63C2685.92 5009.35 2682.86 4995.74 2679.49 4978.86C2661.86 4890.63 2654.01 4800.73 2656.07 4710.79C2656.07 4693.48 2657.12 4679.14 2657.97 4669.96C2658.13 4664.94 2658.81 4659.96 2659.97 4655.08V4655.08Z" fill="#263238"/>
<path d="M2821.38 4878.74C2822.97 4879.59 2804.82 4911.24 2792.37 4954.07C2779.92 4996.9 2777.6 5033.19 2775.91 5033.09C2774.72 5025.15 2774.72 5017.08 2775.91 5009.14C2777.57 4989.96 2781.11 4970.98 2786.46 4952.49C2791.79 4934.03 2798.85 4916.12 2807.56 4899C2811.21 4891.64 2815.86 4884.82 2821.38 4878.74V4878.74Z" fill="#263238"/>
<path d="M663.802 4029.26H541.316V5001.65H663.802V4029.26Z" fill="#455A64"/>
<path d="M663.909 5001.54C663.909 5001.54 663.909 4999.86 663.909 4996.48V4981.92C663.909 4968.95 663.909 4950.27 663.909 4926.01C663.909 4877.37 663.909 4807.11 663.065 4719.86C663.065 4545.26 662.327 4302.61 661.905 4029.26L664.648 4032H541.318L544.061 4029.26C543.428 4455.16 542.901 4823.99 542.584 5001.54L541.318 5000.38L632.154 5001.02H655.786H663.909C663.909 5001.02 661.377 5001.02 656.208 5001.02H632.892L541.318 5001.65H540.158V5000.38C540.158 4822.83 539.314 4454 538.575 4028.1L541.318 4025.35H666.652V4028.1C666.652 4302.4 665.703 4545.57 665.492 4720.7C665.492 4807.64 664.859 4877.69 664.648 4926.22C664.648 4950.06 664.648 4968.42 664.648 4981.5V4995.74C664.015 5000.07 663.909 5001.54 663.909 5001.54Z" fill="#263238"/>
<g opacity="0.3">
<path opacity="0.3" d="M663.802 4052.89H541.316V4093.4H663.802V4052.89Z" fill="black"/>
</g>
<path d="M3269.76 4029.26H3147.28V5001.65H3269.76V4029.26Z" fill="#455A64"/>
<path d="M3269.76 5001.54C3269.76 5001.54 3269.76 4999.86 3269.76 4996.48V4981.92C3269.76 4968.95 3269.76 4950.27 3269.76 4926.01C3269.76 4877.37 3269.76 4807.11 3268.91 4719.86C3268.91 4545.26 3268.28 4302.61 3267.75 4029.26L3270.5 4032H3147.27L3150.02 4029.26C3149.28 4455.16 3148.75 4823.99 3148.43 5001.54L3147.27 5000.38L3238.11 5001.02H3261.63H3269.76C3269.76 5001.02 3267.23 5001.02 3262.06 5001.02H3238.85L3147.27 5001.65H3146.01V5000.38C3146.01 4822.83 3145.16 4454 3144.53 4028.1L3147.27 4025.35H3272.5V4028.1C3272.5 4302.4 3271.66 4545.57 3271.34 4720.7C3271.34 4807.64 3270.71 4877.69 3270.5 4926.22C3270.5 4950.06 3270.5 4968.42 3270.5 4981.5V4995.74C3269.86 5000.07 3269.76 5001.54 3269.76 5001.54Z" fill="#263238"/>
<path d="M3077.75 3177.45H2955.27V3988.01H3077.75V3177.45Z" fill="#455A64"/>
<path d="M3077.86 3987.9C3077.7 3986.46 3077.7 3985.01 3077.86 3983.57V3971.44C3077.86 3960.89 3077.86 3944.96 3077.86 3925.02C3077.86 3884.4 3077.33 3826.06 3077.01 3753.37C3077.01 3607.99 3076.27 3405.86 3075.85 3177.34L3078.59 3180.09H2955.37C2960.75 3174.6 2956.85 3178.72 2958.01 3177.55V3306.16C2958.01 3348.36 2958.01 3389.4 2958.01 3429.49C2958.01 3509.67 2958.01 3585.42 2958.01 3655.15C2957.48 3794.41 2957.16 3909.51 2956.95 3987.9L2955.58 3986.53L3046.21 3987.27H3069.94H3078.17H3070.36H3047.05L2955.58 3988.01H2954V3987.9C2954 3909.51 2953.47 3794.41 2953.05 3655.15C2953.05 3585.42 2953.05 3509.67 2953.05 3429.49C2953.05 3389.4 2953.05 3348.29 2953.05 3306.16V3177.66C2954.31 3176.39 2950.31 3180.19 2955.9 3174.71H3080.6V3177.45C3080.6 3406.7 3079.75 3610 3079.44 3755.48C3079.44 3827.86 3078.8 3885.99 3078.7 3926.39C3078.7 3946.12 3078.7 3961.53 3078.7 3972.29C3078.7 3977.24 3078.7 3981.25 3078.7 3984.1C3078.7 3986.95 3077.86 3987.9 3077.86 3987.9Z" fill="#263238"/>
<path d="M898.333 3177.45H775.848V3988.01H898.333V3177.45Z" fill="#455A64"/>
<path d="M898.44 3987.9C898.354 3986.46 898.354 3985.02 898.44 3983.57C898.44 3980.62 898.44 3976.61 898.44 3971.44C898.44 3960.89 898.44 3944.96 898.44 3925.02C898.44 3884.4 898.44 3826.06 897.596 3753.37C897.596 3607.99 896.858 3405.86 896.436 3177.34L899.179 3180.09H775.955C781.335 3174.6 777.432 3178.72 778.592 3177.55V3306.16C778.592 3348.36 778.592 3389.47 778.592 3429.49C778.592 3509.67 778.592 3585.42 778.592 3655.15C778.592 3794.41 777.748 3909.51 777.537 3987.9L776.166 3986.53L866.79 3987.27H890.528H898.757H890.95H867.634L776.166 3988.01H774.9V3987.9C774.9 3909.51 774.267 3794.41 773.845 3655.15C773.845 3585.42 773.845 3509.67 773.845 3429.49C773.845 3389.4 773.845 3348.29 773.845 3306.16V3177.66C775.111 3176.39 771.102 3180.19 776.693 3174.71H901.183V3177.45C901.183 3406.7 900.234 3610 899.917 3755.48C899.917 3827.86 899.917 3885.99 899.179 3926.39C899.179 3946.12 899.179 3961.53 899.179 3972.29C899.179 3977.24 899.179 3981.25 899.179 3984.1C899.179 3986.95 898.44 3987.9 898.44 3987.9Z" fill="#263238"/>
<path d="M3314.18 3084.93H534.146V3214.69H3314.18V3084.93Z" fill="#455A64"/>
<path d="M3314.18 3214.69C3314.18 3214.69 3314.18 3212.05 3314.18 3206.78C3314.18 3201.5 3314.18 3193.59 3314.18 3182.94C3314.18 3161.84 3314.18 3129.24 3314.18 3084.93L3314.92 3085.77L534.991 3087.67L537.734 3084.93V3214.69L534.991 3211.95L2504.68 3213.11L3097.69 3213.95H3258.68H3300.88H3315.23H3301.2H3259.63H3099.38L2507 3214.8L534.147 3217.75H531.404V3082.18H534.253L3314.18 3084.19H3315.02V3084.93C3315.02 3129.45 3315.02 3161.94 3315.02 3183.36C3315.02 3193.91 3315.02 3201.82 3315.02 3207.09C3315.02 3212.37 3314.18 3214.69 3314.18 3214.69Z" fill="#263238"/>
<path d="M3321.35 3279.57H541.316V3409.34H3321.35V3279.57Z" fill="#455A64"/>
<path d="M3321.35 3409.34C3321.35 3409.34 3321.35 3406.7 3321.35 3401.43C3321.35 3396.15 3321.35 3388.24 3321.35 3377.58C3321.35 3356.48 3321.35 3323.88 3321.35 3279.57L3322.09 3280.31L542.266 3282.32L545.009 3279.57V3409.34L542.266 3406.6L2510.9 3407.65L3103.91 3408.39H3264.9H3307.1H3321.45H3307.53H3265.96H3105.6L2513.22 3409.23L541.422 3410.39H538.679V3276.83H541.633L3321.45 3278.84H3322.3V3279.57C3322.3 3324.09 3322.3 3356.59 3322.3 3378C3322.3 3388.55 3322.3 3396.36 3322.3 3401.64C3322.3 3406.91 3321.35 3409.34 3321.35 3409.34Z" fill="#263238"/>
<path d="M3321.35 3481.39H541.316V3611.16H3321.35V3481.39Z" fill="#455A64"/>
<path d="M3321.35 3611.16C3321.35 3611.16 3321.35 3608.52 3321.35 3603.25C3321.35 3597.97 3321.35 3590.06 3321.35 3579.4C3321.35 3558.3 3321.35 3525.7 3321.35 3481.39L3322.09 3482.13L542.269 3484.14L545.012 3481.39V3611.16L542.269 3608.42L2512.06 3609.58L3105.08 3610.42H3266.07H3308.27H3322.62H3308.69H3267.12H3106.76L2514.38 3611.27L542.586 3612.43H539.843V3478.65H542.797L3322.62 3480.66H3323.46V3481.5C3323.46 3526.02 3323.46 3558.52 3323.46 3579.93C3323.46 3590.48 3323.46 3598.29 3323.46 3603.67C3323.46 3609.05 3321.35 3611.16 3321.35 3611.16Z" fill="#263238"/>
<path d="M3321.35 3683.22H541.316V3812.98H3321.35V3683.22Z" fill="#455A64"/>
<path d="M3321.35 3812.98C3321.35 3812.98 3321.35 3810.34 3321.35 3805.07C3321.35 3799.79 3321.35 3791.88 3321.35 3781.23C3321.35 3760.13 3321.35 3727.53 3321.35 3683.22L3322.09 3684.06L542.269 3685.96L545.012 3683.22V3812.98L542.269 3810.24L2512.06 3811.4L3105.08 3812.24H3266.07H3308.27H3322.62H3308.69H3267.12H3106.76L2514.38 3813.09L542.586 3814.25H539.843V3680.47H542.797L3322.62 3682.48H3323.46V3683.22C3323.46 3727.74 3323.46 3760.23 3323.46 3781.65C3323.46 3792.2 3323.46 3800.11 3323.46 3805.39C3323.46 3810.66 3321.35 3812.98 3321.35 3812.98Z" fill="#263238"/>
<path d="M3371.99 3923.12H420.63V4052.89H3371.99V3923.12Z" fill="#455A64"/>
<path d="M3371.99 4052.89C3371.99 4052.89 3371.99 4050.25 3371.99 4044.98C3371.99 4039.7 3371.99 4031.79 3371.99 4021.13C3371.99 4000.03 3371.99 3967.43 3371.99 3923.12L3372.83 3923.86L421.576 3925.87L424.319 3923.12V4052.89L421.576 4050.15L2512.38 4051.2L3142.1 4052.04H3313.12H3357.64C3367.66 4052.04 3372.94 4052.04 3372.94 4052.04H3357.96H3312.7H3142.32L2513.32 4052.89L420.416 4054.05H417.673V3920.38H420.521L3371.78 3922.38H3372.52V3923.12C3372.52 3967.64 3372.52 4000.14 3372.52 4021.55C3372.52 4032.1 3372.52 4039.91 3372.52 4045.19C3372.52 4050.46 3371.99 4052.89 3371.99 4052.89Z" fill="#263238"/>
<g opacity="0.3">
<path opacity="0.3" d="M3269.76 4052.89H3147.28V4093.4H3269.76V4052.89Z" fill="black"/>
</g>
<path d="M1775.67 2429.88L1749.19 2600.68L1681.04 2756.19L1580.07 2691.73L1544.1 2601L1514.03 2524.83C1514.03 2524.83 1407.37 2550.57 1364.85 2450.98C1344.39 2402.87 1310.21 2300.32 1280.45 2207.06C1265.01 2158.66 1268.37 2106.21 1289.88 2060.18C1311.39 2014.15 1349.46 1977.92 1396.5 1958.71L1406.1 1954.7C1512.98 1917.88 1603.92 1988.04 1637.68 2095.76L1776.3 2430.09" fill="#A2675F"/>
<path d="M1513.92 2524.83C1560.55 2506.65 1600.7 2474.99 1629.24 2433.89C1629.24 2433.89 1628.08 2518.81 1524.37 2550.88L1513.92 2524.83Z" fill="#7A4A45"/>
<path d="M1345.54 2283.34C1347.03 2287.09 1349.93 2290.11 1353.62 2291.75C1357.3 2293.39 1361.49 2293.51 1365.27 2292.09C1367.15 2291.49 1368.89 2290.51 1370.38 2289.22C1371.88 2287.93 1373.1 2286.35 1373.98 2284.58C1374.85 2282.81 1375.36 2280.88 1375.48 2278.91C1375.6 2276.94 1375.32 2274.97 1374.66 2273.1C1373.17 2269.35 1370.27 2266.33 1366.59 2264.69C1362.9 2263.05 1358.71 2262.93 1354.93 2264.35C1353.05 2264.95 1351.31 2265.93 1349.82 2267.22C1348.32 2268.51 1347.1 2270.09 1346.22 2271.86C1345.35 2273.63 1344.84 2275.56 1344.72 2277.53C1344.6 2279.5 1344.88 2281.47 1345.54 2283.34Z" fill="#263238"/>
<path d="M1318.75 2242.3C1321.28 2243.46 1329.3 2231.01 1344.28 2224.68C1359.26 2218.35 1374.13 2221.41 1374.98 2218.88C1375.82 2216.34 1372.23 2215.08 1365.9 2213.5C1357.22 2211.46 1348.12 2212.16 1339.85 2215.5C1331.83 2218.8 1325.07 2224.57 1320.54 2231.96C1317.37 2237.76 1317.16 2241.87 1318.75 2242.3Z" fill="#263238"/>
<path d="M1479.85 2223.41C1481.33 2227.17 1484.23 2230.19 1487.92 2231.82C1491.61 2233.46 1495.79 2233.59 1499.57 2232.17C1501.46 2231.57 1503.21 2230.61 1504.72 2229.32C1506.23 2228.03 1507.46 2226.46 1508.35 2224.69C1509.23 2222.92 1509.75 2220.98 1509.88 2219.01C1510 2217.03 1509.73 2215.05 1509.07 2213.18C1507.56 2209.44 1504.66 2206.44 1500.98 2204.81C1497.3 2203.17 1493.12 2203.03 1489.34 2204.42C1487.45 2205.02 1485.7 2205.99 1484.19 2207.27C1482.69 2208.56 1481.45 2210.13 1480.57 2211.9C1479.68 2213.68 1479.16 2215.61 1479.04 2217.59C1478.91 2219.56 1479.19 2221.54 1479.85 2223.41V2223.41Z" fill="#263238"/>
<path d="M1470.14 2174.88C1472.57 2176.25 1481.43 2164.33 1497.36 2160.01C1513.29 2155.68 1527.43 2160.01 1529.01 2157.58C1530.59 2155.15 1526.79 2153.57 1520.57 2151.25C1512.18 2148.66 1503.21 2148.66 1494.83 2151.25C1486.47 2153.65 1479.08 2158.64 1473.73 2165.49C1469.61 2170.24 1468.98 2174.25 1470.14 2174.88Z" fill="#263238"/>
<path d="M1465.71 2324.8C1456.57 2325.57 1447.56 2327.52 1438.92 2330.6C1434.8 2331.76 1430.79 2332.5 1429 2330.6C1426.96 2326.71 1426.19 2322.29 1426.78 2317.94C1426.78 2306.9 1426.57 2295.29 1426.15 2283.13C1424.67 2233.86 1421.93 2193.98 1420.03 2194.08C1418.13 2194.19 1417.5 2234.17 1418.98 2283.44C1418.98 2295.58 1419.82 2307.07 1420.14 2318.15C1419.66 2323.9 1421.19 2329.64 1424.46 2334.4C1425.59 2335.58 1426.98 2336.48 1428.52 2337.02C1430.06 2337.57 1431.7 2337.76 1433.33 2337.56C1435.75 2337.24 1438.13 2336.6 1440.39 2335.66C1449.25 2333.09 1457.75 2329.44 1465.71 2324.8V2324.8Z" fill="#263238"/>
<path d="M1440.61 2109.26C1443.88 2112.85 1458.44 2104.51 1477.43 2098.71C1496.42 2092.91 1513.08 2092.38 1513.93 2088.16C1513.93 2085.95 1510.02 2082.99 1502.53 2081.41C1492.62 2079.67 1482.45 2080.21 1472.78 2082.99C1463.11 2085.77 1454.2 2090.71 1446.72 2097.45C1441.13 2102.83 1439.13 2107.57 1440.61 2109.26Z" fill="#263238"/>
<path d="M1296.38 2181.74C1300.6 2184.06 1309.67 2176.15 1322.33 2170.66C1334.99 2165.18 1346.91 2163.38 1347.86 2158.64C1347.86 2156.42 1345.12 2153.68 1339 2152.31C1331.04 2150.75 1322.8 2151.79 1315.47 2155.26C1308.01 2158.45 1301.73 2163.92 1297.54 2170.87C1294.48 2176.25 1294.48 2180.47 1296.38 2181.74Z" fill="#263238"/>
<path d="M1659.41 2173.3C1660.89 2171.93 1719.97 2124.67 1745.92 2194.4C1771.87 2264.14 1696.86 2275.64 1696.02 2273.63C1695.17 2271.63 1659.41 2173.3 1659.41 2173.3Z" fill="#A2675F"/>
<path d="M1707.41 2238.92C1707.41 2238.92 1708.88 2238.92 1711.31 2239.45C1714.62 2239.55 1717.85 2238.42 1720.38 2236.28C1723.76 2231.82 1725.89 2226.53 1726.56 2220.97C1727.22 2215.41 1726.4 2209.77 1724.18 2204.63C1722.13 2198.61 1718.74 2193.13 1714.26 2188.6C1712.82 2186.65 1710.92 2185.1 1708.73 2184.07C1706.54 2183.03 1704.13 2182.56 1701.71 2182.69C1700.17 2182.83 1698.74 2183.52 1697.66 2184.62C1696.58 2185.72 1695.92 2187.17 1695.8 2188.7C1695.8 2191.02 1696.54 2192.18 1695.8 2192.5C1695.06 2192.82 1693.9 2191.87 1693.37 2188.81C1693.13 2186.94 1693.54 2185.04 1694.54 2183.43C1695.89 2181.25 1698.05 2179.69 1700.55 2179.1C1703.61 2178.62 1706.74 2178.91 1709.66 2179.97C1712.57 2181.02 1715.17 2182.79 1717.22 2185.12C1722.38 2190.07 1726.29 2196.18 1728.61 2202.95C1733.46 2217.08 1731.14 2232.91 1722.18 2239.55C1720.52 2240.79 1718.61 2241.63 1716.58 2242.03C1714.56 2242.43 1712.47 2242.38 1710.47 2241.88C1708.14 2240.5 1707.2 2239.13 1707.41 2238.92Z" fill="#7A4A45"/>
<path d="M1221.16 2094.49C1219.53 2087.29 1220.06 2079.76 1222.69 2072.85C1225.32 2065.95 1229.92 2059.97 1235.93 2055.67C1230.39 2050.4 1226.81 2043.4 1225.78 2035.82C1224.75 2028.25 1226.33 2020.54 1230.26 2013.99C1234.19 2007.43 1240.24 2002.4 1247.4 1999.74C1254.57 1997.07 1262.43 1996.93 1269.69 1999.33C1267.8 1994.16 1267.16 1988.61 1267.84 1983.15C1268.51 1977.69 1270.47 1972.46 1273.56 1967.9C1276.66 1963.35 1280.79 1959.59 1285.62 1956.95C1290.45 1954.31 1295.84 1952.85 1301.34 1952.7C1298.47 1946.74 1297.7 1939.98 1299.17 1933.52C1300.64 1927.07 1304.26 1921.31 1309.43 1917.18C1314.6 1913.05 1321.02 1910.8 1327.64 1910.79C1334.26 1910.79 1340.68 1913.03 1345.86 1917.15C1347.39 1909.74 1350.56 1902.77 1355.15 1896.76C1359.73 1890.75 1365.61 1885.84 1372.35 1882.41C1379.08 1878.97 1386.51 1877.1 1394.07 1876.92C1401.63 1876.74 1409.13 1878.27 1416.02 1881.38C1428.04 1871.22 1443.36 1865.82 1459.09 1866.21C1474.83 1866.6 1489.87 1872.75 1501.37 1883.49C1512.93 1879.68 1525.35 1879.4 1537.07 1882.66C1548.8 1885.93 1559.28 1892.61 1567.2 1901.85C1574.67 1899.46 1582.64 1899.08 1590.31 1900.75C1597.98 1902.42 1605.07 1906.08 1610.86 1911.37C1616.66 1916.65 1620.97 1923.38 1623.34 1930.85C1625.71 1938.33 1626.07 1946.3 1624.38 1953.97C1629.44 1954.64 1634.28 1956.47 1638.52 1959.31C1642.76 1962.16 1646.29 1965.94 1648.83 1970.37C1651.37 1974.8 1652.85 1979.75 1653.17 1984.85C1653.49 1989.94 1652.62 1995.04 1650.65 1999.75C1656.75 2000.24 1662.6 2002.44 1667.5 2006.1C1672.41 2009.76 1676.18 2014.73 1678.39 2020.44C1680.59 2026.15 1681.14 2032.37 1679.97 2038.38C1678.79 2044.39 1675.94 2049.94 1671.75 2054.4C1682.3 2051.45 1691.9 2063.16 1692.85 2074.13C1692.37 2085.08 1691.32 2096 1689.69 2106.84C1689.69 2115.91 1692.11 2124.77 1692.53 2133.84C1692.87 2142.36 1691.35 2150.86 1688.07 2158.73C1684.79 2166.6 1679.83 2173.66 1673.54 2179.42L1676.18 2180.79C1681.56 2188.81 1671.86 2199.89 1662.15 2199.78C1652.5 2198.38 1643.5 2194.12 1636.3 2187.54C1626.79 2181.86 1618.21 2174.74 1610.88 2166.44C1607.29 2162.19 1605.19 2156.88 1604.88 2151.32C1604.58 2145.76 1606.09 2140.26 1609.19 2135.64C1602.43 2135.62 1595.79 2133.83 1589.94 2130.44C1584.09 2127.05 1579.23 2122.19 1575.85 2116.33C1569.19 2104.57 1564.72 2091.7 1562.66 2078.35L1550 2020.01C1537.36 2024.69 1523.67 2025.81 1510.43 2023.27C1497.19 2020.72 1484.9 2014.59 1474.89 2005.56C1471.65 2010.6 1467.37 2014.9 1462.33 2018.16C1457.3 2021.42 1451.63 2023.58 1445.7 2024.48C1439.77 2025.37 1433.72 2025 1427.95 2023.37C1422.17 2021.75 1416.81 2018.91 1412.22 2015.05C1412.81 2029.01 1408.07 2042.68 1398.96 2053.28C1389.85 2063.87 1377.06 2070.61 1363.16 2072.13C1371.71 2085.21 1351.66 2108.84 1339.22 2118.33C1328.98 2124.25 1317.08 2126.66 1305.35 2125.19C1305.35 2125.19 1287.2 2149.25 1271.91 2149.46C1256.61 2149.67 1232.66 2140.17 1235.61 2123.19C1228.6 2114.9 1223.65 2105.06 1221.16 2094.49V2094.49Z" fill="#263238"/>
<path d="M1654.24 1998.06C1654.07 2002.15 1652.99 2006.16 1651.07 2009.78C1649.94 2011.61 1648.4 2013.15 1646.57 2014.29C1644.74 2015.42 1642.67 2016.12 1640.52 2016.32C1637.9 2016.63 1635.24 2016.22 1632.82 2015.15C1630.41 2014.07 1628.33 2012.36 1626.81 2010.2L1624.28 2006.4L1622.27 2010.51C1620.52 2013.67 1617.98 2016.31 1614.88 2018.16C1611.79 2020.01 1608.26 2021.01 1604.65 2021.06C1600.58 2020.88 1596.66 2019.46 1593.42 2016.99C1590.18 2014.52 1587.77 2011.12 1586.51 2007.24L1585.35 2003.02L1582.29 2006.08C1580.45 2007.89 1578.27 2009.31 1575.88 2010.27C1573.49 2011.23 1570.94 2011.71 1568.36 2011.67C1564.21 2011.65 1560.17 2010.28 1556.86 2007.77C1551.16 2003.45 1549.9 1998.91 1549.27 1999.12C1548.63 1999.33 1549.27 2004.39 1554.86 2009.67C1558.49 2013.09 1563.18 2015.18 1568.15 2015.58C1571.37 2015.79 1574.6 2015.35 1577.65 2014.28C1580.7 2013.21 1583.5 2011.54 1585.87 2009.35L1581.55 2008.19C1582.84 2013.01 1585.58 2017.32 1589.4 2020.52C1593.23 2023.72 1597.94 2025.67 1602.91 2026.1C1607.88 2026.53 1612.87 2025.41 1617.18 2022.9C1621.49 2020.4 1624.93 2016.62 1627.02 2012.1H1622.48C1624.59 2014.97 1627.45 2017.2 1630.74 2018.54C1634.04 2019.88 1637.65 2020.28 1641.16 2019.69C1643.83 2019.19 1646.35 2018.09 1648.53 2016.46C1650.71 2014.83 1652.48 2012.73 1653.71 2010.3C1657.72 2003.02 1654.55 1997.64 1654.24 1998.06Z" fill="#455A64"/>
<path d="M1691.58 2059.47C1691.06 2059.47 1690 2062.42 1685.47 2065.37C1682.49 2067.43 1678.96 2068.53 1675.34 2068.53C1671.72 2068.53 1668.19 2067.43 1665.21 2065.37L1662.89 2063.47L1661.83 2066.32C1660.52 2069.5 1658.41 2072.28 1655.72 2074.4C1653.02 2076.53 1649.82 2077.92 1646.43 2078.46C1642.51 2078.88 1638.55 2078.1 1635.08 2076.21C1631.61 2074.33 1628.8 2071.43 1627.02 2067.91L1624.91 2063.47L1622.17 2067.48C1621.46 2068.52 1620.61 2069.44 1619.63 2070.23C1617.44 2072.04 1614.74 2073.12 1611.91 2073.33C1609.07 2073.54 1606.24 2072.86 1603.81 2071.39C1601.66 2069.91 1599.95 2067.87 1598.87 2065.49C1597.79 2063.11 1597.38 2060.48 1597.69 2057.88L1598.43 2052.61L1593.89 2055.35C1588.69 2058.44 1582.48 2059.39 1576.59 2057.99C1571.89 2056.94 1567.67 2054.38 1564.56 2050.71C1561.93 2047.22 1559.74 2043.43 1558.02 2039.42C1557.77 2041.79 1558.02 2044.19 1558.75 2046.46C1559.47 2048.73 1560.66 2050.82 1562.24 2052.61C1565.45 2057.14 1570.1 2060.45 1575.43 2062C1578.92 2063.05 1582.59 2063.39 1586.22 2062.99C1589.84 2062.59 1593.35 2061.46 1596.53 2059.68L1593.05 2057.25C1592.51 2060.81 1592.99 2064.45 1594.43 2067.75C1595.87 2071.05 1598.2 2073.89 1601.17 2075.92C1604.53 2078.12 1608.49 2079.19 1612.49 2078.98C1616.49 2078.77 1620.32 2077.29 1623.43 2074.76C1624.82 2073.59 1626.06 2072.24 1627.12 2070.75H1622.27C1624.26 2075.06 1627.48 2078.66 1631.54 2081.12C1635.59 2083.57 1640.29 2084.75 1645.02 2084.51C1649.75 2084.27 1654.3 2082.63 1658.09 2079.78C1661.87 2076.93 1664.72 2073.02 1666.26 2068.54L1662.89 2069.49C1664.93 2070.98 1667.26 2072.03 1669.73 2072.6C1672.19 2073.16 1674.75 2073.21 1677.24 2072.76C1681.13 2072.33 1684.8 2070.75 1687.79 2068.22C1691.58 2063.26 1691.9 2059.47 1691.58 2059.47Z" fill="#455A64"/>
<path d="M1309.78 1947C1311.28 1944.13 1313.28 1941.56 1315.69 1939.41C1317.33 1938.04 1319.24 1937.03 1321.3 1936.43C1323.35 1935.83 1325.51 1935.67 1327.63 1935.95C1329.75 1936.23 1331.79 1936.94 1333.62 1938.04C1335.45 1939.15 1337.03 1940.62 1338.27 1942.36L1340.8 1945.84L1341.43 1941.52C1342.18 1936.99 1344.06 1932.73 1346.91 1929.14C1349.75 1925.54 1353.45 1922.72 1357.68 1920.94C1362.84 1918.95 1368.5 1918.64 1373.84 1920.06C1379.19 1921.48 1383.95 1924.56 1387.43 1928.86L1390.6 1932.76L1391.86 1927.91C1393.27 1923.2 1395.7 1918.87 1398.98 1915.22C1402.27 1911.57 1406.32 1908.7 1410.85 1906.81C1415.75 1904.86 1421.06 1904.17 1426.29 1904.8C1431.52 1905.43 1436.51 1907.35 1440.81 1910.39C1444.38 1912.88 1447.4 1916.08 1449.68 1919.78L1451.26 1922.32L1453.69 1920.52C1459.45 1916.41 1466.44 1914.35 1473.51 1914.68C1480.59 1915 1487.35 1917.69 1492.72 1922.32C1497.21 1926.61 1500.39 1932.1 1501.86 1938.14C1503.34 1944.17 1503.06 1950.51 1501.05 1956.39L1499.58 1960.3L1503.59 1959.35C1512.51 1957.45 1521.82 1959.12 1529.54 1963.99C1535.47 1967.77 1540.08 1973.3 1542.73 1979.81C1544.86 1985.59 1545.97 1991.7 1546 1997.85C1546 1997.85 1546.84 1996.27 1547.05 1993C1547.47 1988.21 1546.82 1983.38 1545.15 1978.86C1542.67 1971.6 1537.89 1965.35 1531.54 1961.03C1527.37 1958.16 1522.66 1956.14 1517.7 1955.09C1512.74 1954.04 1507.62 1953.98 1502.64 1954.92L1505.27 1957.97C1508.26 1950.69 1508.77 1942.63 1506.73 1935.04C1504.69 1927.44 1500.2 1920.72 1493.96 1915.92C1487.72 1911.12 1480.08 1908.51 1472.21 1908.48C1464.34 1908.46 1456.68 1911.02 1450.41 1915.77L1454.42 1916.51C1451.69 1912.29 1448.09 1908.7 1443.87 1905.96C1438.82 1902.37 1432.94 1900.1 1426.78 1899.38C1420.62 1898.66 1414.38 1899.51 1408.64 1901.85C1403.36 1904.09 1398.65 1907.49 1394.87 1911.8C1391.09 1916.11 1388.33 1921.22 1386.8 1926.75L1391.33 1925.8C1387.6 1921.16 1382.58 1917.73 1376.9 1915.94C1371.22 1914.15 1365.14 1914.07 1359.42 1915.73C1353.71 1917.39 1348.61 1920.7 1344.77 1925.25C1340.93 1929.8 1338.52 1935.39 1337.85 1941.31L1341.01 1940.46C1339.2 1938.17 1336.89 1936.34 1334.26 1935.09C1331.62 1933.85 1328.73 1933.23 1325.82 1933.29C1321.52 1933.45 1317.43 1935.17 1314.32 1938.14C1312.41 1939.91 1310.96 1942.12 1310.1 1944.58C1309.68 1946.05 1309.68 1947 1309.78 1947Z" fill="#455A64"/>
<path d="M1511.5 2308.02C1508.97 2308.87 1515.82 2325.64 1506.43 2343.37C1497.05 2361.09 1478.48 2366.58 1479.22 2369C1479.95 2371.43 1484.6 2370.59 1492.19 2367.74C1502.03 2363.84 1510.17 2356.59 1515.19 2347.27C1520.04 2338.32 1521.21 2327.84 1518.46 2318.05C1516.25 2310.45 1512.66 2307.39 1511.5 2308.02Z" fill="#263238"/>
<path d="M1408.74 2611.86L1325.18 2847.23L1344.49 3104.65L1397.24 3549.34C1397.24 3549.34 1593.15 3483.19 1602.01 3489.83C1610.87 3496.48 1515.29 3039.03 1515.29 3039.03L1584.39 2666.83L1579.96 2557.21L1408.74 2611.86Z" fill="#EE4444"/>
<path d="M1408.74 2611.86L1316.85 2822.86L1126.95 2897.35L928.399 2958.85L956.251 3101.7C957.628 3108.64 960.414 3115.22 964.435 3121.03C968.456 3126.85 973.628 3131.78 979.63 3135.52C985.632 3139.25 992.338 3141.72 999.331 3142.76C1006.32 3143.81 1013.46 3143.4 1020.29 3141.58L1188.35 3096.43L1344.91 3089.25L1426.36 2899.98L1408.74 2611.86Z" fill="#EE4444"/>
<path d="M993.276 2900.09L1007.2 2882.79C1020.91 2882.67 1034.46 2885.62 1046.87 2891.44C1065.05 2906.38 1078.38 2926.4 1085.17 2948.94C1086.69 2965.15 1086.69 2981.47 1085.17 2997.68L990.217 2900.09" fill="#A2675F"/>
<path d="M808.126 2797.54C808.126 2800.39 987.476 2990.4 987.476 2990.4L1021.24 3023.74H1128.85L919.956 2791.64L829.859 2776.23L808.126 2797.54Z" fill="#263238"/>
<path d="M1535.55 3219.65C1533.95 3217.58 1532.57 3215.35 1531.44 3213L1520.89 3193.38C1511.81 3176.29 1498.94 3151.18 1483.96 3119.53C1466.14 3082.95 1450.29 3045.45 1436.49 3007.17C1432.54 2996.02 1429.27 2984.64 1426.68 2973.1C1425.33 2967.04 1424.38 2960.91 1423.83 2954.74C1423.83 2948.62 1423.83 2942.4 1423.83 2936.17C1423.83 2911.17 1423.83 2885.32 1425.09 2858.84C1426.36 2825.29 1428.05 2792.9 1430.05 2762.1V2760.51L1431.53 2759.88L1487.13 2735.4L1487.76 2740.26L1445.56 2734.67H1441.97L1443.77 2731.61C1471.2 2684.55 1493.98 2645.2 1510.34 2617.03L1529.22 2585.38L1534.39 2577.15C1534.92 2576.14 1535.59 2575.22 1536.4 2574.41C1536.07 2575.49 1535.61 2576.51 1535.02 2577.47L1530.49 2586.12L1512.66 2618.62L1447.88 2734.14L1446.09 2730.66L1488.29 2735.93L1497.25 2736.99L1489.03 2740.68L1433.64 2765.37L1435.22 2763.05C1433.32 2793.85 1431.63 2826.35 1430.37 2859.68C1429.42 2886.06 1428.79 2911.8 1429 2936.7C1429 2942.92 1429 2949.04 1429 2955.16C1429.45 2961.05 1430.34 2966.91 1431.63 2972.67C1434.13 2984.03 1437.26 2995.23 1441.02 3006.22C1455.9 3049.37 1472.67 3087.04 1487.34 3118.58C1502 3150.12 1514.03 3175.23 1522.58 3192.43L1532.28 3212.48C1533.55 3214.78 1534.64 3217.18 1535.55 3219.65Z" fill="#263238"/>
<path d="M913.942 2900.09C913.942 2900.09 886.724 2919.71 887.462 2930.9C887.469 2935.82 888.674 2940.67 890.971 2945.02C893.268 2949.38 896.59 2953.11 900.65 2955.9C906.98 2958.01 925.758 2967.71 925.758 2967.71C925.758 2967.71 908.984 2983.75 913.942 3000.53C914.858 3005.01 916.764 3009.23 919.52 3012.88C922.276 3016.53 925.813 3019.52 929.873 3021.63C930.259 3033.3 932.613 3044.82 936.836 3055.7C943.245 3064.4 952.703 3070.35 963.316 3072.37C969.234 3084.38 976.301 3095.8 984.416 3106.45C992.568 3114.01 1002.7 3119.1 1013.64 3121.11C1013.64 3121.11 1038.75 3123.96 1051.94 3114.89C1060.89 3110.38 1068.36 3103.39 1073.43 3094.74C1078.5 3086.09 1080.97 3076.16 1080.53 3066.15C1080.53 3066.15 1140.45 3036.18 1141.08 3020.89C1141.72 3005.59 1134.86 3000.74 1134.86 3000.74L1104.9 3006.22C1104.9 3006.22 1100.68 2990.29 1091.71 2988.81C1082.74 2987.34 973.339 3013.92 973.339 3013.92C973.339 3013.92 1047.82 3002.11 1049.93 2987.44C1052.04 2972.78 1052.67 2960.33 1041.49 2957.48C1030.31 2954.63 951.079 2963.28 951.079 2963.28L946.858 2949.15C946.858 2949.15 967.958 2949.89 967.958 2931.11C967.958 2912.33 956.142 2908.11 956.142 2908.11L913.942 2900.09Z" fill="#A2675F"/>
<path d="M1535.55 2574.2L1544.63 2646.89L1488.39 2963.07L1545.47 3236L1841.29 3323.46L1957.66 3273.24L1917.88 2507.1L1812.17 2432.83L1771.56 2405.51L1619.21 2636.13L1535.55 2574.2Z" fill="#FAFAFA"/>
<path d="M1804.05 2427.03L1877.9 2459.94L2139.75 2495.18L2281.01 3238.11L2298.73 3323.46L2569.55 3728.69C2572.49 3733.08 2574.49 3738.04 2575.43 3743.25C2576.37 3748.45 2576.22 3753.79 2575.01 3758.94C2573.79 3764.09 2571.52 3768.93 2568.35 3773.16C2565.18 3777.4 2561.17 3780.93 2556.58 3783.55L2335.03 3910.15C2326.79 3914.36 2317.3 3915.4 2308.35 3913.07C2299.4 3910.73 2291.62 3905.19 2286.5 3897.49L2004.5 3472.85L1864.81 3294.03C1864.81 3294.03 1781.15 3040.83 1769.86 2933.11C1761.08 2838.68 1761.08 2743.64 1769.86 2649.21C1776.4 2584.75 1804.05 2427.03 1804.05 2427.03Z" fill="#EE4444"/>
<path d="M2139.32 2495.18C2156.37 2504.13 2171.17 2516.81 2182.63 2532.29C2194.08 2547.76 2201.89 2565.62 2205.47 2584.54C2222.14 2672.74 2272.36 2826.56 2291.24 2990.82C2317.62 3220.6 2255.8 3291.49 2226.68 3331.16C2197.56 3370.83 2016.94 3455.02 2016.94 3455.02L1881.17 3274.19L2031.5 3150.97L2018.32 2831.83C2018.32 2831.83 1965.57 2759.25 1991.94 2651.43C2018.32 2543.61 2095.33 2488.64 2139.64 2495.18H2139.32Z" fill="#EE4444"/>
<g opacity="0.3">
<path opacity="0.3" d="M2279.43 3232.1C2258.86 3287.8 2235.33 3334.85 2187.43 3361.34C2136.37 3389.61 2065.37 3429.49 2016.95 3455.02L2052.39 3510.09C2107.99 3501.55 2210.64 3436.77 2243.98 3391.51C2276.25 3345.08 2288.98 3287.83 2279.43 3232.1Z" fill="black"/>
</g>
<path d="M2015.05 2848.5C2015.5 2850.05 2015.82 2851.64 2016 2853.25C2016.63 2856.73 2017.37 2861.37 2018.42 2867.28C2020.32 2880.04 2023.17 2898.19 2026.76 2921.51C2033.93 2968.98 2044.17 3037.56 2056.72 3121.96V3123.01L2055.88 3123.75L1882.96 3276.09V3272.82L2018.85 3453.54L2015.47 3452.8C2060.62 3430.02 2107.36 3405.33 2153.57 3378C2166.76 3370.09 2179.73 3362.18 2192.29 3353.63C2204.76 3345.6 2216.45 3336.42 2227.21 3326.2C2245.52 3303.48 2260.03 3277.94 2270.15 3250.56C2288.78 3198.27 2297.4 3142.94 2295.57 3087.46C2294.31 3037.14 2289.48 2986.97 2281.12 2937.33C2273.84 2890.6 2265.4 2847.34 2257.06 2807.99C2240.5 2729.18 2224.47 2665.99 2213.28 2622.41C2207.59 2601.31 2202.73 2584.01 2200.09 2572.3C2198.62 2566.71 2197.46 2562.38 2196.72 2559.22C2196.19 2557.75 2195.84 2556.23 2195.66 2554.68C2195.66 2554.68 2196.3 2556.16 2197.25 2559.01C2198.2 2561.86 2199.46 2566.5 2201.15 2571.98C2204.53 2583.27 2209.38 2600.15 2215.39 2621.89C2227.21 2665.35 2243.77 2728.44 2260.86 2807.14C2269.51 2846.5 2278.16 2889.86 2285.66 2936.7C2294.23 2986.49 2299.2 3036.84 2300.53 3087.35C2302.57 3143.53 2293.98 3199.58 2275.21 3252.57C2264.84 3280.56 2249.98 3306.68 2231.22 3329.9C2220.22 3340.48 2208.21 3349.95 2195.35 3358.17C2182.69 3366.72 2169.61 3374.73 2156.42 3382.65C2109.89 3410.18 2063.26 3434.87 2017.9 3457.55L2015.89 3458.61L2014.52 3456.81L1878.95 3275.78L1877.58 3273.88L1879.27 3272.4L2052.82 3120.69L2052.18 3122.48C2040.26 3038.08 2031.08 2969.72 2024.02 2922.03C2020.85 2898.72 2018.32 2879.83 2016.63 2867.7C2015.89 2861.69 2015.26 2857.15 2014.84 2853.56C2014.8 2851.87 2014.87 2850.18 2015.05 2848.5Z" fill="#263238"/>
<path d="M1823.35 3121.43C1823.28 3118.95 1823.49 3116.47 1823.98 3114.04C1824.62 3108.77 1825.57 3101.81 1826.62 3092.94C1829.36 3074.16 1833.06 3048.11 1837.7 3016.24C1846.88 2951.47 1861.33 2862.21 1875.36 2763.04C1881.9 2715.15 1888.13 2669.57 1893.72 2628.01L1895.41 2630.64L1850.67 2613.55L1846.24 2611.86L1850.15 2609.33L1895.09 2580.21L1894.25 2582.22C1888.87 2544.98 1884.54 2514.49 1881.38 2492.54C1880.11 2481.99 1878.95 2474.29 1878.21 2468.07C1877.66 2465.22 1877.41 2462.32 1877.47 2459.42C1878.35 2462.17 1878.98 2464.99 1879.37 2467.86C1880.43 2474.08 1881.9 2482.1 1883.7 2492.23C1887.28 2514.07 1892.24 2544.45 1898.26 2581.59V2582.96L1897.2 2583.69L1852.57 2613.24L1852.05 2609.12L1896.99 2625.89L1898.89 2626.63V2628.64C1893.4 2670.21 1887.28 2715.89 1880.85 2763.78C1866.92 2862.64 1851.84 2951.89 1841.6 3016.98C1836.33 3048.63 1832 3074.8 1828.84 3093.47L1825.14 3114.57C1824.76 3116.91 1824.16 3119.2 1823.35 3121.43V3121.43Z" fill="#263238"/>
<path d="M2099.45 2505.2C2100.08 2506.05 2086.68 2515.75 2068.64 2534C2058.17 2545 2048.64 2556.86 2040.16 2569.45C2019.16 2600.35 2004.79 2635.27 1997.96 2672C1995.2 2686.93 1993.72 2702.07 1993.53 2717.26C1993.53 2743.32 1996.37 2759.46 1995.32 2759.46C1993.9 2755.87 1992.97 2752.11 1992.58 2748.28C1991.67 2743.92 1991.04 2739.52 1990.68 2735.09C1990.02 2729.17 1989.67 2723.22 1989.62 2717.26C1989.22 2701.79 1990.32 2686.31 1992.89 2671.05C1996.29 2652.4 2001.52 2634.13 2008.51 2616.51C2015.86 2599.01 2024.94 2582.29 2035.62 2566.6C2044.46 2553.89 2054.49 2542.06 2065.58 2531.26C2069.77 2527.1 2074.18 2523.16 2078.77 2519.45C2082.13 2516.51 2085.65 2513.76 2089.32 2511.22C2092.42 2508.77 2095.82 2506.75 2099.45 2505.2V2505.2Z" fill="#263238"/>
<path d="M1343.33 3089.46C1341.86 3089.46 1337 3038.4 1332.78 2975.1C1328.56 2911.8 1325.92 2860.53 1327.51 2860.32C1329.09 2860.11 1333.84 2911.48 1338.06 2974.68C1342.28 3037.87 1344.81 3089.36 1343.33 3089.46Z" fill="#263238"/>
<path d="M2235.23 3555.25L2275.85 3638.17L2463.95 3517.79L2398.86 3444.05L2235.23 3555.25Z" fill="#EE4444"/>
<path d="M2235.23 3555.35C2238.79 3552.24 2242.56 3549.39 2246.52 3546.8L2279.65 3523.49L2397.38 3442.04L2399.28 3440.78L2400.76 3442.46L2466.06 3516.31L2468.17 3518.74L2465.43 3520.43L2457.2 3525.7L2276.9 3639.75L2275 3640.91L2274.16 3638.91L2245.04 3577.29C2241.98 3570.54 2239.45 3565.06 2237.55 3560.73C2236.61 3558.94 2235.83 3557.07 2235.23 3555.14C2236.55 3556.95 2237.68 3558.9 2238.61 3560.94C2240.82 3565.27 2243.67 3570.75 2247.26 3577.4L2277.64 3637.22L2274.79 3636.48L2454.14 3520.43L2462.37 3515.15V3519.27C2439.37 3493.21 2417.43 3468.31 2397.38 3445.42H2400.76L2282.92 3524.02L2248.52 3546.49L2239.13 3552.5L2235.23 3555.35Z" fill="#263238"/>
<g opacity="0.3">
<path opacity="0.3" d="M2236.6 3558.94C2237.44 3560.52 2278.8 3686.28 2278.8 3686.28L2454.25 3561.79L2439.16 3534.25L2275.85 3638.69L2236.6 3558.94Z" fill="black"/>
</g>
<g opacity="0.3">
<path opacity="0.3" d="M1882.75 2494.65L1914.4 2597.52L1882.75 2611.86L1924.42 2632.33C1924.42 2632.33 1858.8 2991.03 1850.57 3023.74C1842.35 3056.44 1832.22 3066.99 1832.22 3066.99L1896.26 2628.85L1851.52 2611.86L1896.26 2582.43L1882.75 2494.65Z" fill="black"/>
</g>
<path d="M1188.67 3055.17C1187.84 3030.5 1183.83 3006.03 1176.75 2982.38C1167.93 2959.37 1156.23 2937.57 1141.93 2917.5C1147.94 2921.82 1153.09 2927.22 1157.13 2933.43C1178.6 2962.32 1190.45 2997.24 1190.99 3033.23C1191.54 3040.63 1190.76 3048.06 1188.67 3055.17V3055.17Z" fill="#263238"/>
<g opacity="0.3">
<path opacity="0.3" d="M1325.92 2850.19C1294.27 2928.26 1305.98 3013.82 1342.59 3089.46C1336.89 3002.42 1333.52 2934.59 1325.92 2850.19Z" fill="black"/>
</g>
<path d="M1781.16 2492.02C1779.73 2495.73 1777.89 2499.27 1775.67 2502.57L1759.32 2529.89C1745.6 2553.1 1727.67 2585.38 1709.42 2622.2C1697.18 2647 1686.73 2670.73 1677.77 2690.78L1676.61 2693.73L1674.18 2691.83C1660.23 2680.7 1647.12 2668.57 1634.93 2655.54C1630.05 2650.86 1625.73 2645.62 1622.06 2639.93C1627.34 2644.14 1632.31 2648.73 1636.94 2653.64C1649.7 2665.78 1663.09 2677.26 1677.03 2688.03L1673.44 2688.98C1681.56 2668.62 1691.8 2644.78 1704.04 2619.78C1719.5 2588.22 1736.68 2557.55 1755.52 2527.89C1762.8 2516.49 1769.02 2507.52 1773.46 2501.41C1775.63 2497.97 1778.22 2494.82 1781.16 2492.02V2492.02Z" fill="#263238"/>
<path d="M1607.93 2637.5C1603.78 2655.92 1597.88 2673.9 1590.31 2691.2L1588.94 2694.89L1585.98 2692.36L1584.61 2691.09C1569.26 2678.88 1556.07 2664.19 1545.58 2647.63C1546.74 2646.57 1564.14 2665.98 1587.78 2686.98L1589.15 2688.14L1584.82 2689.3C1590.85 2671.33 1598.58 2653.99 1607.93 2637.5V2637.5Z" fill="#263238"/>
<path d="M1638.94 3177.34C1638.36 3175.72 1638.07 3174.01 1638.1 3172.28C1638.1 3168.17 1637.26 3163.31 1636.73 3157.4C1635.88 3143.58 1634.62 3125.12 1633.14 3102.65C1630.29 3056.44 1627.02 2992.61 1624.17 2922.03C1621.32 2851.45 1619.85 2787.52 1619.85 2741.21C1619.85 2718 1619.85 2699.01 1620.59 2686.35C1620.59 2680.44 1620.59 2675.8 1621.32 2671.47C1621.32 2669.73 1621.53 2667.99 1621.96 2666.3C1622.25 2668.01 1622.25 2669.76 1621.96 2671.47C1621.96 2675.48 1621.96 2680.44 1621.96 2686.35C1621.96 2700.17 1622.59 2718.63 1623.01 2741.1C1623.96 2787.42 1626.18 2851.24 1628.92 2921.82C1631.66 2992.4 1634.3 3055.49 1636.2 3102.44C1637.04 3125.02 1637.68 3143.48 1638.2 3157.3C1638.2 3163.21 1638.2 3167.85 1638.2 3172.17C1638.61 3173.87 1638.86 3175.6 1638.94 3177.34Z" fill="#263238"/>
<path d="M1021.24 4602.12L1048.56 4859.65C1048.56 4859.65 795.362 4974.01 796.311 5022.01L1297.65 4987.09L1271.59 4583.87L1021.24 4602.12Z" fill="#EE4444"/>
<path d="M1202.07 4827.15C1206.94 4828.39 1211.2 4831.32 1214.11 4835.42C1217.01 4839.52 1218.35 4844.52 1217.89 4849.52C1216.94 4854.48 1214.12 4858.88 1210.02 4861.82C1205.92 4864.77 1200.85 4866.03 1195.84 4865.34C1190.58 4864.24 1185.93 4861.18 1182.85 4856.76C1179.77 4852.35 1178.5 4846.93 1179.28 4841.61C1180.78 4836.53 1184.2 4832.24 1188.8 4829.64C1193.41 4827.04 1198.85 4826.34 1203.97 4827.68" fill="#E0E0E0"/>
<path d="M1298.81 4997.54L1296.27 4958.5L814.35 4995.21C814.35 4995.21 792.617 5006.5 796.309 5022.01L1298.81 4997.54Z" fill="#E0E0E0"/>
<path d="M1040.23 4857.75C1040.23 4860.17 1052.78 4860.39 1065.44 4867.45C1078.1 4874.52 1085.17 4884.33 1087.28 4883.17C1089.39 4882.01 1084.85 4868.19 1069.45 4859.96C1054.05 4851.73 1039.59 4855.53 1040.23 4857.75Z" fill="#263238"/>
<path d="M989.167 4883.17C989.167 4885.49 999.717 4888.98 1008.68 4898.79C1017.65 4908.6 1020.92 4919.25 1023.35 4919.04C1025.78 4918.83 1026.41 4904.8 1014.91 4892.88C1003.41 4880.96 989.061 4880.75 989.167 4883.17Z" fill="#263238"/>
<path d="M963.741 4947.95C965.957 4947.95 968.489 4935.82 961.315 4922.84C954.141 4909.86 942.219 4905.33 941.375 4907.44C940.531 4909.55 948.022 4916.3 953.824 4926.96C959.627 4937.61 961.209 4947.95 963.741 4947.95Z" fill="#263238"/>
<path d="M1040.55 4798.35C1041.71 4800.46 1052.68 4796.35 1066.61 4796.24C1080.53 4796.14 1091.61 4799.83 1092.77 4797.72C1093.93 4795.61 1082.85 4787.17 1066.5 4787.7C1050.15 4788.22 1039.18 4796.45 1040.55 4798.35Z" fill="#263238"/>
<path d="M931.988 3562.63L699.888 3677.41C699.888 3677.41 505.135 3479.92 460.192 3497.01L666.55 3955.19L1035.8 3791.14L931.988 3562.63Z" fill="#EE4444"/>
<path d="M783.444 3810.13C784.105 3815.15 782.886 3820.23 780.023 3824.4C777.159 3828.57 772.853 3831.53 767.935 3832.71C762.954 3833.56 757.838 3832.45 753.652 3829.62C749.466 3826.79 746.533 3822.46 745.464 3817.52C744.678 3812.2 745.955 3806.77 749.033 3802.36C752.112 3797.95 756.76 3794.88 762.027 3793.78C767.217 3793.59 772.284 3795.38 776.202 3798.79C780.12 3802.2 782.595 3806.97 783.127 3812.14" fill="#E0E0E0"/>
<path d="M657.055 3959.94L692.819 3944.01L491.42 3504.6C491.42 3504.6 473.379 3488.25 459.77 3497.01L657.055 3959.94Z" fill="#E0E0E0"/>
<path d="M698.722 3668.97C696.507 3670.03 700.516 3681.63 698.722 3695.88C696.929 3710.12 689.755 3720.25 691.548 3721.93C693.342 3723.62 704.841 3714.44 707.162 3697.14C709.483 3679.84 700.621 3667.5 698.722 3668.97Z" fill="#263238"/>
<path d="M657.158 3629.83C654.837 3629.83 655.365 3641.75 649.351 3653.57C643.338 3665.39 634.265 3672.14 635.32 3674.67C636.375 3677.2 649.773 3672.56 656.947 3657.69C664.121 3642.81 659.374 3629.2 657.158 3629.83Z" fill="#263238"/>
<path d="M587.425 3628.46C587.425 3630.68 600.402 3628.46 610.108 3617.91C619.814 3607.36 619.919 3593.96 617.598 3593.86C615.277 3593.75 611.69 3603.25 603.567 3612.32C595.443 3621.39 586.581 3626.14 587.425 3628.46Z" fill="#263238"/>
<path d="M754.536 3648.61C752.954 3650.51 760.655 3659.16 765.086 3672.46C769.517 3685.75 770.361 3697.14 772.788 3697.35C775.214 3697.56 779.012 3684.59 772.788 3669.4C766.563 3654.2 755.802 3646.71 754.536 3648.61Z" fill="#263238"/>
<path d="M1045.29 3708.64C1020.19 3714.9 997.416 3728.24 979.684 3747.08C961.952 3765.91 950.008 3789.45 945.275 3814.88C928.289 3904.24 989.796 4802.99 989.796 4802.99L1305.24 4777.67L1285.93 4172.1L1278.13 4049.93L1305.24 4028.83L1859.64 3931.25L1775.24 3702.1L1682.51 3540.69L1257.87 3646.19L1045.29 3708.64Z" fill="#263238"/>
<path d="M2088.89 3557.25C2088.89 3557.25 1859.54 3225.66 1792.44 3177.45C1737.16 3137.68 1654.02 3137.78 1602.54 3160.89C1551.06 3183.99 747.989 3582.36 747.989 3582.36L865.833 3877.76L1630.29 3612.85L1744.23 3792.2L1850.36 3932.72L2148.29 3935.04C2162.32 3935.04 2226.36 3808.44 2226.36 3808.44L2088.89 3557.25Z" fill="#263238"/>
<path d="M942.325 3884.19C942.166 3883.18 942.166 3882.15 942.325 3881.13C942.325 3878.71 942.325 3875.75 942.325 3872.06C942.325 3868.37 942.325 3862.99 942.325 3857.19C942.325 3851.38 943.696 3844.63 944.54 3837.04C945.384 3829.44 947.811 3821.32 949.499 3812.14C950.448 3807.6 952.347 3803.06 953.824 3798.32C955.356 3793.29 957.26 3788.39 959.521 3783.65C969.288 3760.78 984.851 3740.85 1004.68 3725.84C1016.22 3717.05 1029.38 3710.6 1043.39 3706.85L1089.08 3699.04L1189.62 3682.27L1420.13 3644.08L1629.45 3609.79H1631.13L1632.08 3611.27C1693.38 3706.95 1743.18 3790.62 1785.06 3844.63C1805.31 3871.96 1821.56 3893.69 1832.96 3908.88C1838.34 3916.16 1842.56 3921.86 1845.72 3925.97L1848.89 3930.4L1849.94 3931.99C1849.94 3931.99 1849.94 3931.99 1848.57 3930.72L1844.98 3926.5L1831.58 3909.94C1819.98 3895.38 1803.1 3873.96 1782.53 3846.64C1739.8 3792.62 1689.26 3709.49 1627.76 3614.54L1630.29 3615.7L1420.98 3650.3L1190.46 3688.07L1089.81 3704.42L1044.34 3711.81C1030.83 3715.35 1018.12 3721.44 1006.89 3729.74C987.489 3744.28 972.156 3763.58 962.37 3785.76C960.031 3790.37 958.09 3795.17 956.567 3800.11C954.803 3804.56 953.289 3809.1 952.031 3813.72C949.82 3821.77 948.059 3829.95 946.756 3838.2L943.907 3858.14C943.907 3863.83 943.274 3868.69 943.063 3872.91C942.852 3877.13 943.063 3879.66 942.43 3881.98C942.452 3882.72 942.417 3883.46 942.325 3884.19Z" fill="#455A64"/>
<path d="M1739.7 3407.65C1740.49 3410.75 1740.88 3413.94 1740.86 3417.15C1741.56 3425.82 1741.56 3434.53 1740.86 3443.2C1739.67 3456.12 1737.3 3468.91 1733.79 3481.39C1729.34 3496.64 1723.47 3511.44 1716.28 3525.6C1708.71 3539.56 1699.88 3552.81 1689.9 3565.16C1681.57 3575.11 1672.39 3584.33 1662.47 3592.7C1655.87 3598.33 1648.81 3603.42 1641.37 3607.89C1638.75 3609.77 1635.87 3611.26 1632.83 3612.32C1632.3 3611.48 1643.38 3604.3 1659.94 3589.74C1669.3 3581.19 1677.98 3571.91 1685.89 3562C1695.51 3549.78 1704.05 3536.75 1711.42 3523.07C1718.47 3509.21 1724.33 3494.77 1728.94 3479.92C1732.62 3467.78 1735.3 3455.36 1736.95 3442.78C1739.38 3421.36 1738.64 3407.65 1739.7 3407.65Z" fill="#455A64"/>
<path d="M4398.29 4459.27L3017.82 4458.54C2938.09 4458.48 2861.64 4426.77 2805.28 4370.36C2748.91 4313.96 2717.25 4237.49 2717.25 4157.76L2717.99 696.3C2717.99 656.797 2725.78 617.681 2740.9 581.188C2756.02 544.695 2778.19 511.539 2806.13 483.616C2834.08 455.693 2867.25 433.55 2903.75 418.452C2940.25 403.354 2979.38 395.597 3018.88 395.625L4399.35 396.891C4479.08 396.947 4555.53 428.661 4611.89 485.062C4668.26 541.463 4699.92 617.936 4699.92 697.672L4699.28 4158.7C4699.25 4198.2 4691.45 4237.31 4676.31 4273.79C4661.17 4310.27 4638.99 4343.42 4611.04 4371.33C4583.09 4399.24 4549.91 4421.37 4513.41 4436.46C4476.91 4451.55 4437.79 4459.3 4398.29 4459.27V4459.27Z" fill="#263238"/>
<path d="M4397.87 519.271H4130.22C4112.6 519.686 4095.86 527.072 4083.68 539.808C4071.5 552.545 4064.86 569.592 4065.23 587.213V635.743C4065.43 644.472 4063.9 653.154 4060.74 661.293C4057.58 669.432 4052.85 676.869 4046.81 683.178C4040.78 689.488 4033.56 694.546 4025.57 698.065C4017.58 701.584 4008.97 703.493 4000.24 703.685H3478.55C3469.82 703.493 3461.21 701.584 3453.22 698.065C3445.23 694.546 3438.01 689.488 3431.98 683.178C3425.94 676.869 3421.21 669.432 3418.05 661.293C3414.89 653.154 3413.36 644.472 3413.56 635.743V586.58C3413.93 568.959 3407.29 551.912 3395.11 539.175C3382.93 526.439 3366.19 519.053 3348.57 518.638H3254.36H3020.15C2964.19 518.638 2910.52 540.868 2870.95 580.439C2831.38 620.009 2809.15 673.678 2809.15 729.638L2808.52 4107.85C2808.52 4163.72 2830.67 4217.31 2870.13 4256.87C2909.59 4296.42 2963.12 4318.71 3018.99 4318.85L4396.82 4319.59C4452.78 4319.59 4506.45 4297.36 4546.02 4257.79C4585.59 4218.22 4607.82 4164.55 4607.82 4108.59L4608.56 730.377C4608.58 674.453 4586.41 620.805 4546.91 581.221C4507.4 541.637 4453.8 519.355 4397.87 519.271V519.271Z" fill="white"/>
<path d="M4608.45 729.955C4608.45 673.994 4586.22 620.325 4546.65 580.755C4507.08 541.185 4453.41 518.955 4397.45 518.955H4129.8C4112.18 519.37 4095.44 526.755 4083.26 539.492C4071.08 552.228 4064.44 569.276 4064.81 586.897V635.427C4065 644.156 4063.48 652.838 4060.32 660.977C4057.16 669.116 4052.43 676.552 4046.39 682.862C4040.36 689.171 4033.14 694.23 4025.15 697.748C4017.15 701.267 4008.55 703.177 3999.82 703.369H3478.12C3469.39 703.177 3460.79 701.267 3452.8 697.748C3444.81 694.23 3437.59 689.171 3431.55 682.862C3425.52 676.552 3420.78 669.116 3417.62 660.977C3414.46 652.838 3412.94 644.156 3413.13 635.427V586.58C3413.5 568.959 3406.87 551.912 3394.69 539.175C3382.5 526.439 3365.77 519.053 3348.15 518.638H3253.94H3019.73C2963.76 518.638 2910.1 540.868 2870.53 580.439C2830.96 620.009 2808.73 673.678 2808.73 729.638L2808.73 1215H4608.45V729.955Z" fill="#EE4444"/>
<path d="M4462.01 848.642L4462.05 847.643C4413.99 845.566 4365.86 845.954 4317.84 848.804L4317.83 850.8C4341.84 852.472 4365.92 852.895 4389.97 852.068C4409.86 851.91 4427.88 851.541 4440.93 851.092C4447.46 850.868 4452.75 850.623 4456.41 850.375C4458.24 850.251 4459.68 850.125 4460.67 849.998C4461.16 849.935 4461.57 849.868 4461.88 849.793C4462.02 849.758 4462.19 849.708 4462.35 849.632C4462.43 849.596 4462.55 849.527 4462.68 849.41C4462.8 849.295 4463.01 849.037 4463.01 848.642H4462.01Z" fill="white" stroke="white" stroke-width="2"/>
<path d="M4462.73 886.458L4463.65 886.379V885.461C4463.65 885.067 4463.43 884.808 4463.31 884.691C4463.19 884.573 4463.06 884.505 4462.98 884.469C4462.82 884.394 4462.65 884.346 4462.5 884.312C4462.2 884.241 4461.79 884.18 4461.3 884.124C4460.32 884.01 4458.89 883.903 4457.07 883.805C4453.42 883.608 4448.15 883.44 4441.64 883.314C4428.63 883.063 4410.63 882.984 4390.68 883.195C4370.74 883.406 4352.72 883.776 4339.68 884.211C4333.16 884.429 4327.88 884.664 4324.22 884.904C4322.4 885.023 4320.96 885.146 4319.97 885.27C4319.49 885.332 4319.08 885.397 4318.77 885.471C4318.63 885.506 4318.46 885.556 4318.3 885.631C4318.22 885.668 4318.1 885.736 4317.97 885.853C4317.85 885.969 4317.64 886.228 4317.64 886.622V887.555L4318.57 887.619C4342.58 889.291 4366.65 889.715 4390.7 888.888C4414.74 889.336 4438.78 888.525 4462.73 886.458Z" fill="white" stroke="white" stroke-width="2"/>
<path d="M4462.65 922.387L4462.69 921.387C4414.66 919.311 4366.56 919.698 4318.58 922.549L4318.57 924.545C4342.59 926.147 4366.66 926.535 4390.72 925.707C4410.6 925.549 4428.59 925.206 4441.62 924.784C4448.13 924.573 4453.41 924.342 4457.06 924.103C4458.89 923.984 4460.32 923.862 4461.31 923.738C4461.8 923.677 4462.21 923.611 4462.51 923.537C4462.66 923.502 4462.83 923.453 4462.99 923.377C4463.06 923.341 4463.19 923.272 4463.31 923.155C4463.43 923.039 4463.65 922.78 4463.65 922.387H4462.65Z" fill="white" stroke="white" stroke-width="2"/>
<path d="M3208.35 3399.63L3215.63 3384.33C3228.45 3394.73 3244.5 3400.33 3261 3400.16C3284.63 3400.16 3294.86 3390.98 3294.86 3379.06C3294.86 3345.62 3211.73 3366.72 3211.73 3315.76C3211.73 3294.66 3228.19 3276.51 3264.48 3276.51C3280.06 3276.22 3295.38 3280.47 3308.58 3288.75L3302.14 3304.26C3290.88 3297.08 3277.83 3293.2 3264.48 3293.08C3241.17 3293.08 3231.14 3302.89 3231.14 3314.92C3231.14 3348.46 3314.28 3327.47 3314.28 3378.22C3314.28 3399.32 3297.4 3417.25 3261.53 3417.25C3242.28 3417.79 3223.46 3411.56 3208.35 3399.63V3399.63Z" fill="#263238"/>
<path d="M3330.31 3363.34C3330.2 3356.19 3331.56 3349.1 3334.31 3342.5C3337.06 3335.9 3341.15 3329.94 3346.3 3324.99C3351.46 3320.04 3357.58 3316.21 3364.29 3313.73C3371 3311.25 3378.14 3310.18 3385.28 3310.59C3393.66 3310.1 3402.02 3311.9 3409.45 3315.81C3416.89 3319.71 3423.12 3325.57 3427.48 3332.74L3413.24 3341.92C3410.19 3337.23 3405.99 3333.4 3401.04 3330.8C3396.09 3328.19 3390.55 3326.9 3384.96 3327.05C3375.61 3327.55 3366.8 3331.62 3360.35 3338.42C3353.91 3345.22 3350.32 3354.23 3350.32 3363.6C3350.32 3372.97 3353.91 3381.99 3360.35 3388.79C3366.8 3395.59 3375.61 3399.66 3384.96 3400.16C3390.56 3400.34 3396.1 3399.06 3401.06 3396.45C3406.02 3393.84 3410.21 3390 3413.24 3385.28L3427.48 3394.36C3423.11 3401.53 3416.88 3407.39 3409.45 3411.31C3402.02 3415.23 3393.67 3417.06 3385.28 3416.62C3378.1 3417.01 3370.92 3415.92 3364.18 3413.4C3357.45 3410.89 3351.3 3407.01 3346.14 3402C3340.98 3397 3336.91 3390.98 3334.18 3384.33C3331.46 3377.67 3330.14 3370.53 3330.31 3363.34Z" fill="#263238"/>
<path d="M3534.25 3352.58V3415.25H3516.42V3401.53C3512.46 3406.69 3507.25 3410.75 3501.29 3413.35C3495.34 3415.96 3488.81 3417.01 3482.34 3416.41C3458.81 3416.41 3443.83 3403.85 3443.83 3385.81C3443.83 3367.77 3454.38 3355.43 3486.03 3355.43H3515.89V3351.74C3515.89 3335.91 3506.61 3326.63 3488.04 3326.63C3476.12 3326.53 3464.52 3330.47 3455.12 3337.81L3447.21 3323.67C3459.66 3314.62 3474.76 3309.94 3490.15 3310.38C3518.21 3310.38 3534.25 3324.09 3534.25 3352.58ZM3515.47 3383.49V3369.04H3486.46C3467.78 3369.04 3462.51 3376.21 3462.51 3385.07C3462.51 3393.93 3471.16 3401.95 3485.4 3401.95C3491.72 3402.42 3498.02 3400.89 3503.41 3397.57C3508.81 3394.26 3513.03 3389.33 3515.47 3383.49Z" fill="#263238"/>
<path d="M3667.81 3355.43V3415.25H3648.92V3357.64C3648.92 3337.28 3638.37 3327.26 3620.97 3327.26C3616.41 3326.92 3611.84 3327.58 3607.58 3329.22C3603.31 3330.85 3599.46 3333.41 3596.31 3336.71C3593.15 3340.01 3590.76 3343.96 3589.32 3348.3C3587.87 3352.63 3587.4 3357.22 3587.95 3361.76V3415.25H3569.17V3311.33H3587V3327.05C3591.45 3321.48 3597.18 3317.06 3603.69 3314.16C3610.21 3311.26 3617.33 3309.96 3624.45 3310.38C3650.3 3310.38 3667.81 3324.94 3667.81 3355.43Z" fill="#263238"/>
<path d="M3801.27 3355.43V3415.25H3782.49V3357.64C3782.49 3337.28 3771.94 3327.26 3754.43 3327.26C3749.88 3326.91 3745.31 3327.58 3741.05 3329.21C3736.79 3330.85 3732.95 3333.41 3729.8 3336.71C3726.65 3340.01 3724.27 3343.97 3722.84 3348.3C3721.4 3352.63 3720.95 3357.23 3721.51 3361.76V3415.25H3703.05V3311.33H3721.09V3327.05C3725.53 3321.47 3731.26 3317.04 3737.78 3314.13C3744.3 3311.23 3751.42 3309.95 3758.54 3310.38C3783.44 3310.38 3801.27 3324.94 3801.27 3355.43Z" fill="#263238"/>
<path d="M3832.92 3279.15C3832.81 3276.6 3833.47 3274.08 3834.81 3271.91C3836.16 3269.74 3838.12 3268.02 3840.45 3266.98C3842.77 3265.93 3845.36 3265.61 3847.87 3266.05C3850.39 3266.49 3852.71 3267.67 3854.54 3269.45C3856.38 3271.22 3857.64 3273.5 3858.16 3276C3858.69 3278.49 3858.45 3281.09 3857.49 3283.45C3856.52 3285.81 3854.87 3287.83 3852.75 3289.25C3850.63 3290.66 3848.13 3291.41 3845.58 3291.39C3843.94 3291.43 3842.31 3291.15 3840.78 3290.55C3839.25 3289.96 3837.86 3289.06 3836.68 3287.92C3835.5 3286.79 3834.56 3285.42 3833.92 3283.92C3833.27 3282.41 3832.93 3280.79 3832.92 3279.15V3279.15ZM3836.19 3311.33H3855.07V3415.25H3836.19V3311.33Z" fill="#263238"/>
<path d="M3989.58 3355.43V3415.25H3970.7V3357.64C3970.7 3337.28 3960.15 3327.26 3942.64 3327.26C3938.09 3326.91 3933.52 3327.58 3929.26 3329.21C3925 3330.85 3921.15 3333.41 3918.01 3336.71C3914.86 3340.01 3912.48 3343.97 3911.05 3348.3C3909.61 3352.63 3909.16 3357.23 3909.72 3361.76V3415.25H3890.94V3311.33H3908.98V3327.05C3913.44 3321.48 3919.16 3317.06 3925.68 3314.16C3932.2 3311.26 3939.31 3309.96 3946.43 3310.38C3971.65 3310.38 3989.58 3324.94 3989.58 3355.43Z" fill="#263238"/>
<path d="M4124.41 3311.33V3401.22C4124.41 3437.82 4105.84 3454.49 4070.5 3454.49C4052.67 3455.24 4035.14 3449.76 4020.92 3438.98L4029.88 3424.53C4041.27 3433.47 4055.39 3438.24 4069.87 3438.03C4094.45 3438.03 4105.63 3426.64 4105.63 3403.11V3394.88C4100.96 3400.16 4095.18 3404.33 4088.71 3407.1C4082.23 3409.88 4075.22 3411.18 4068.18 3410.92C4061.38 3411.23 4054.6 3410.16 4048.23 3407.78C4041.86 3405.39 4036.04 3401.74 4031.12 3397.04C4026.2 3392.34 4022.28 3386.69 4019.61 3380.44C4016.93 3374.18 4015.55 3367.45 4015.55 3360.65C4015.55 3353.85 4016.93 3347.12 4019.61 3340.86C4022.28 3334.61 4026.2 3328.96 4031.12 3324.26C4036.04 3319.56 4041.86 3315.91 4048.23 3313.52C4054.6 3311.14 4061.38 3310.07 4068.18 3310.38C4075.46 3310.09 4082.72 3311.48 4089.38 3314.44C4096.04 3317.41 4101.92 3321.86 4106.58 3327.47V3311.33H4124.41ZM4105.95 3360.6C4106.35 3353.42 4104.59 3346.29 4100.89 3340.13C4097.19 3333.97 4091.73 3329.06 4085.2 3326.04C4078.68 3323.02 4071.4 3322.03 4064.31 3323.2C4057.22 3324.37 4050.64 3327.63 4045.43 3332.58C4040.22 3337.53 4036.62 3343.93 4035.09 3350.95C4033.56 3357.98 4034.17 3365.3 4036.85 3371.96C4039.53 3378.63 4044.15 3384.34 4050.11 3388.35C4056.07 3392.37 4063.1 3394.49 4070.29 3394.46C4074.91 3394.82 4079.56 3394.2 4083.92 3392.65C4088.29 3391.1 4092.28 3388.65 4095.65 3385.45C4099.01 3382.26 4101.66 3378.4 4103.43 3374.12C4105.21 3369.84 4106.07 3365.23 4105.95 3360.6V3360.6Z" fill="#263238"/>
<path d="M4151.42 3402.9C4151.39 3401.14 4151.72 3399.39 4152.38 3397.76C4153.04 3396.12 4154.03 3394.64 4155.28 3393.4C4156.54 3392.16 4158.02 3391.18 4159.66 3390.53C4161.3 3389.88 4163.05 3389.57 4164.82 3389.61C4168.37 3389.61 4171.78 3391.02 4174.29 3393.53C4176.8 3396.05 4178.21 3399.45 4178.21 3403.01C4178.21 3406.56 4176.8 3409.97 4174.29 3412.48C4171.78 3415 4168.37 3416.41 4164.82 3416.41C4163.04 3416.42 4161.29 3416.08 4159.65 3415.41C4158.01 3414.73 4156.52 3413.74 4155.27 3412.48C4154.02 3411.22 4153.04 3409.72 4152.38 3408.08C4151.72 3406.44 4151.39 3404.67 4151.42 3402.9V3402.9Z" fill="#263238"/>
<path d="M4195.95 3402.9C4195.92 3401.14 4196.24 3399.39 4196.91 3397.76C4197.57 3396.12 4198.56 3394.64 4199.81 3393.4C4201.06 3392.16 4202.55 3391.18 4204.19 3390.53C4205.83 3389.88 4207.58 3389.57 4209.34 3389.61C4212.9 3389.61 4216.31 3391.02 4218.82 3393.53C4221.33 3396.05 4222.74 3399.45 4222.74 3403.01C4222.74 3406.56 4221.33 3409.97 4218.82 3412.48C4216.31 3415 4212.9 3416.41 4209.34 3416.41C4207.57 3416.42 4205.81 3416.08 4204.17 3415.41C4202.54 3414.73 4201.05 3413.74 4199.8 3412.48C4198.55 3411.22 4197.57 3409.72 4196.91 3408.08C4196.24 3406.44 4195.92 3404.67 4195.95 3402.9V3402.9Z" fill="#263238"/>
<path d="M4240.46 3402.9C4240.43 3401.14 4240.76 3399.39 4241.43 3397.76C4242.09 3396.12 4243.08 3394.64 4244.33 3393.4C4245.58 3392.16 4247.07 3391.18 4248.71 3390.53C4250.35 3389.88 4252.1 3389.57 4253.86 3389.61C4257.42 3389.61 4260.82 3391.02 4263.34 3393.53C4265.85 3396.05 4267.26 3399.45 4267.26 3403.01C4267.26 3406.56 4265.85 3409.97 4263.34 3412.48C4260.82 3415 4257.42 3416.41 4253.86 3416.41C4252.09 3416.42 4250.33 3416.08 4248.69 3415.41C4247.05 3414.73 4245.57 3413.74 4244.32 3412.48C4243.07 3411.22 4242.09 3409.72 4241.42 3408.08C4240.76 3406.44 4240.44 3404.67 4240.46 3402.9V3402.9Z" fill="#263238"/>
<path d="M4241.2 3590.38H3140.94C3044.1 3590.38 2965.6 3668.88 2965.6 3765.72V3802.96C2965.6 3899.8 3044.1 3978.3 3140.94 3978.3H4241.2C4338.04 3978.3 4416.54 3899.8 4416.54 3802.96V3765.72C4416.54 3668.88 4338.04 3590.38 4241.2 3590.38Z" fill="#EBEBEB"/>
<path d="M4264.31 3857.29C4264.31 3858.77 4015.43 3860.03 3708.64 3860.03C3401.84 3860.03 3152.86 3858.77 3152.86 3857.29C3152.86 3855.81 3401.63 3854.55 3708.64 3854.55C4015.64 3854.55 4264.31 3855.71 4264.31 3857.29Z" fill="#263238"/>
<path d="M3261.2 1103.89C3258.84 1102.4 3257.66 1100.05 3257.66 1096.82C3257.66 1093.6 3260.02 1088.71 3264.74 1082.14C3266.11 1080.03 3268.28 1078.98 3271.26 1078.98C3274.37 1078.98 3278.53 1080.53 3283.75 1083.63C3288.97 1086.6 3293.69 1088.09 3297.92 1088.09C3305.49 1088.09 3309.28 1086.6 3309.28 1083.63C3309.28 1081.27 3305.12 1079.54 3296.8 1078.42C3288.97 1077.31 3281.2 1074.39 3273.5 1069.68C3269.9 1067.45 3266.92 1063.98 3264.55 1059.27C3262.19 1054.44 3261.01 1048.74 3261.01 1042.17C3261.01 1022.59 3274.49 1012.8 3301.46 1012.8C3310.28 1012.8 3319.35 1014.91 3328.67 1019.12C3333.01 1021.1 3335.19 1023.58 3335.19 1026.56C3335.19 1029.53 3333.82 1033.19 3331.09 1037.52C3328.36 1041.86 3325.56 1044.03 3322.7 1044.03C3321.21 1044.03 3318.42 1043.1 3314.32 1041.24C3310.34 1039.38 3305.99 1038.45 3301.27 1038.45C3293.94 1038.45 3290.27 1039.82 3290.27 1042.54C3290.27 1046.26 3294.5 1048.68 3302.95 1049.79C3311.15 1050.66 3319.1 1053.02 3326.8 1056.86C3330.41 1058.59 3333.39 1061.63 3335.75 1065.97C3338.23 1070.18 3339.48 1075.51 3339.48 1081.95C3339.48 1088.4 3338.23 1093.91 3335.75 1098.5C3333.39 1102.96 3330.03 1106.3 3325.68 1108.54C3317.73 1112.38 3307.73 1114.3 3295.68 1114.3C3283.75 1114.3 3272.26 1110.83 3261.2 1103.89ZM3413.88 1100.36C3409.16 1106.55 3401.65 1109.65 3391.33 1109.65C3381.02 1109.65 3371.33 1104.94 3362.26 1095.52C3353.31 1085.98 3348.84 1074.89 3348.84 1062.25C3348.84 1049.61 3353.38 1038.52 3362.45 1028.97C3371.52 1019.43 3381.46 1014.66 3392.27 1014.66C3396.49 1014.66 3400.34 1015.47 3403.82 1017.08C3407.3 1018.56 3409.66 1019.99 3410.9 1021.35C3412.27 1022.59 3413.33 1023.77 3414.07 1024.88C3414.44 1021.41 3415.69 1018.81 3417.8 1017.08C3420.04 1015.22 3423.58 1014.29 3428.42 1014.29C3433.27 1014.29 3436.81 1014.66 3439.04 1015.4C3441.28 1016.15 3442.83 1017.45 3443.7 1019.31C3444.7 1021.04 3445.26 1022.59 3445.38 1023.95C3445.63 1025.32 3445.75 1027.42 3445.75 1030.27V1107.23C3445.75 1121.49 3440.78 1132.95 3430.84 1141.62C3420.9 1150.42 3409.72 1154.82 3397.3 1154.82C3387.86 1154.82 3378.85 1152.53 3370.27 1147.94C3361.7 1143.36 3357.41 1139.21 3357.41 1135.49C3357.41 1130.66 3359.28 1126.38 3363.01 1122.66C3365.37 1120.06 3367.17 1118.26 3368.41 1117.27C3369.78 1116.28 3371.33 1115.79 3373.07 1115.79C3374.81 1115.79 3376.61 1116.53 3378.47 1118.02C3384.44 1122.6 3390.9 1124.89 3397.86 1124.89C3402.58 1124.89 3406.43 1123.04 3409.41 1119.32C3412.39 1115.6 3413.88 1111.14 3413.88 1105.93V1100.36ZM3380.71 1062.43C3380.71 1066.4 3382.26 1069.99 3385.37 1073.22C3388.6 1076.44 3392.45 1078.05 3396.93 1078.05C3401.52 1078.05 3405.31 1076.44 3408.29 1073.22C3411.28 1069.87 3412.77 1066.28 3412.77 1062.43C3412.77 1058.47 3411.34 1054.81 3408.48 1051.47C3405.62 1048 3401.77 1046.26 3396.93 1046.26C3392.08 1046.26 3388.17 1047.93 3385.18 1051.28C3382.2 1054.63 3380.71 1058.34 3380.71 1062.43ZM3545.08 981.385C3546.08 979.526 3547.75 978.225 3550.11 977.481C3552.48 976.737 3555.46 976.366 3559.06 976.366C3562.66 976.366 3565.52 976.675 3567.63 977.295C3569.75 977.915 3571.36 978.658 3572.48 979.526C3573.6 980.393 3574.47 981.633 3575.09 983.244C3575.71 985.35 3576.02 988.573 3576.02 992.91V1096.08C3576.02 1098.93 3575.9 1101.1 3575.65 1102.59C3575.52 1103.95 3574.96 1105.56 3573.97 1107.42C3572.23 1110.77 3567.38 1112.44 3559.43 1112.44C3550.74 1112.44 3545.64 1110.15 3544.15 1105.56C3543.41 1103.45 3543.03 1100.23 3543.03 1095.89V1058.16H3493.64V1096.08C3493.64 1098.93 3493.52 1101.1 3493.27 1102.59C3493.15 1103.95 3492.59 1105.56 3491.59 1107.42C3489.85 1110.77 3485.01 1112.44 3477.06 1112.44C3468.36 1112.44 3463.27 1110.15 3461.78 1105.56C3461.03 1103.45 3460.66 1100.23 3460.66 1095.89V992.724C3460.66 989.874 3460.72 987.767 3460.84 986.404C3461.09 984.917 3461.71 983.244 3462.71 981.385C3464.45 978.039 3469.29 976.366 3477.24 976.366C3485.94 976.366 3491.1 978.658 3492.71 983.244C3493.33 985.35 3493.64 988.573 3493.64 992.91V1030.83H3543.03V992.724C3543.03 989.874 3543.09 987.767 3543.22 986.404C3543.47 984.917 3544.09 983.244 3545.08 981.385ZM3858 1015.4C3865.95 1018.87 3869.93 1023.15 3869.93 1028.23C3869.93 1030.34 3868.93 1033.74 3866.94 1038.45C3864.96 1043.04 3863.28 1047.07 3861.91 1050.54L3841.41 1100.36C3839.55 1105.81 3836.44 1109.65 3832.09 1111.88C3830.23 1112.75 3827.87 1113.18 3825.01 1113.18C3822.15 1113.18 3819.36 1112.13 3816.62 1110.02C3814.02 1107.79 3812.28 1105.56 3811.41 1103.33L3809.92 1100.17C3808.92 1097.69 3805.26 1088.03 3798.92 1071.17C3797.68 1074.15 3795.81 1079.04 3793.33 1085.86C3790.97 1092.55 3789.41 1096.76 3788.67 1098.5C3788.05 1100.11 3787.61 1101.22 3787.36 1101.84C3787.24 1102.34 3786.74 1103.33 3785.87 1104.82C3785 1106.3 3784.01 1107.61 3782.89 1108.72C3779.91 1111.7 3776.49 1113.18 3772.64 1113.18C3768.79 1113.18 3765.56 1112.13 3762.95 1110.02C3760.34 1107.79 3758.6 1105.56 3757.73 1103.33L3729.59 1034.92C3728.35 1031.2 3727.73 1028.79 3727.73 1027.67C3727.73 1022.71 3731.27 1018.81 3738.35 1015.96C3742.33 1014.35 3745.56 1013.54 3748.04 1013.54C3750.53 1013.54 3752.51 1014.1 3754 1015.22C3755.62 1016.21 3756.74 1017.26 3757.36 1018.38C3757.98 1019.37 3758.48 1020.42 3758.85 1021.54C3760.96 1026.49 3765.37 1038.14 3772.08 1056.49L3783.08 1026.37C3783.82 1023.89 3785.19 1021.72 3787.18 1019.86C3790.78 1016.27 3794.45 1014.47 3798.17 1014.47C3801.9 1014.47 3805.07 1015.47 3807.68 1017.45C3810.41 1019.43 3812.28 1021.41 3813.27 1023.4L3814.76 1026.56C3820.97 1043.91 3824.64 1053.82 3825.76 1056.3L3837.13 1025.44C3840.11 1017.51 3844.58 1013.54 3850.54 1013.54C3852.9 1013.54 3855.39 1014.16 3858 1015.4ZM3937.95 1063.55L3962.73 1084C3965.84 1086.6 3967.77 1088.58 3968.51 1089.95C3969.38 1091.31 3969.82 1092.61 3969.82 1093.85C3969.82 1096.82 3967.89 1100.85 3964.04 1105.93C3959.81 1111.14 3956.09 1113.74 3952.86 1113.74C3950.12 1113.74 3946.33 1111.94 3941.49 1108.35L3939.62 1107.05C3936.77 1104.69 3932.36 1100.6 3926.39 1094.78C3920.43 1088.83 3915.89 1084.62 3912.79 1082.14V1096.45C3912.79 1099.3 3912.66 1101.47 3912.41 1102.96C3912.29 1104.32 3911.73 1105.93 3910.74 1107.79C3909.12 1111.01 3904.34 1112.63 3896.39 1112.63C3888.56 1112.63 3883.78 1110.95 3882.04 1107.61C3881.17 1105.75 3880.61 1104.14 3880.36 1102.77C3880.23 1101.29 3880.17 1099.12 3880.17 1096.27V984.917C3880.17 982.066 3880.23 979.96 3880.36 978.596C3880.61 977.109 3881.17 975.436 3882.04 973.577C3883.78 970.231 3888.62 968.558 3896.57 968.558C3902.54 968.558 3906.76 969.611 3909.25 971.718C3911.36 973.453 3912.48 976.18 3912.6 979.898C3912.72 981.013 3912.79 982.748 3912.79 985.103V1044.03C3915.02 1042.17 3918.38 1039.01 3922.85 1034.55C3927.45 1030.09 3930.86 1026.93 3933.1 1025.07L3935.34 1023.58C3939.69 1020.24 3943.41 1018.56 3946.52 1018.56C3949.63 1018.56 3953.17 1021.1 3957.14 1026.18C3961.24 1031.14 3963.29 1035.05 3963.29 1037.9C3963.29 1040.75 3960.99 1044.09 3956.4 1047.93L3937.95 1063.55ZM4069.13 1052.02C4069.13 1059.58 4067.2 1065.22 4063.35 1068.94C4059.62 1072.53 4055.46 1074.33 4050.86 1074.33H4006.69C4006.69 1077.8 4008.74 1080.71 4012.84 1083.07C4016.94 1085.42 4021.04 1086.6 4025.14 1086.6C4032.35 1086.6 4038 1085.86 4042.1 1084.37L4044.15 1083.63C4047.13 1082.26 4049.62 1081.58 4051.61 1081.58C4055.58 1081.58 4059 1084.37 4061.86 1089.95C4063.47 1093.29 4064.28 1096.14 4064.28 1098.5C4064.28 1109.53 4051.05 1115.04 4024.58 1115.04C4015.39 1115.04 4007.19 1113.49 3999.98 1110.39C3992.9 1107.17 3987.37 1102.96 3983.4 1097.75C3975.57 1087.72 3971.65 1076.5 3971.65 1064.11C3971.65 1048.49 3976.69 1036.04 3986.75 1026.74C3996.94 1017.32 4009.61 1012.61 4024.77 1012.61C4042.04 1012.61 4054.71 1018.69 4062.79 1030.83C4067.01 1037.28 4069.13 1044.34 4069.13 1052.02ZM4029.8 1057.41C4034.52 1057.41 4036.88 1055.43 4036.88 1051.47C4036.88 1048.62 4035.77 1046.32 4033.53 1044.59C4031.42 1042.85 4028.31 1041.99 4024.21 1041.99C4020.24 1041.99 4016.26 1043.66 4012.28 1047C4008.31 1050.23 4006.32 1053.7 4006.32 1057.41H4029.8ZM4148 1015.77C4150.36 1016.52 4152.29 1017.82 4153.78 1019.68C4155.4 1021.41 4156.2 1024.26 4156.2 1028.23C4156.2 1032.2 4155.02 1036.53 4152.66 1041.24C4150.3 1045.95 4146.89 1048.31 4142.41 1048.31C4140.18 1048.31 4138 1047.81 4135.89 1046.82C4133.9 1045.83 4131.23 1045.33 4127.88 1045.33C4124.52 1045.33 4121.35 1046.51 4118.37 1048.86C4115.51 1051.22 4114.08 1054.07 4114.08 1057.41V1096.45C4114.08 1099.3 4113.96 1101.47 4113.71 1102.96C4113.59 1104.32 4113.03 1105.93 4112.03 1107.79C4110.17 1111.01 4105.33 1112.63 4097.5 1112.63C4091.53 1112.63 4087.25 1111.57 4084.64 1109.46C4082.65 1107.73 4081.53 1105.07 4081.28 1101.47C4081.28 1100.23 4081.28 1098.44 4081.28 1096.08V1030.83C4081.28 1027.98 4081.35 1025.88 4081.47 1024.51C4081.72 1023.02 4082.28 1021.41 4083.15 1019.68C4084.89 1016.33 4089.73 1014.66 4097.68 1014.66C4105.14 1014.66 4109.8 1016.08 4111.66 1018.94C4113.03 1020.92 4113.71 1022.96 4113.71 1025.07C4114.33 1024.2 4115.2 1023.15 4116.32 1021.91C4117.56 1020.67 4120.11 1019 4123.96 1016.89C4127.81 1014.78 4131.17 1013.73 4134.03 1013.73C4137.01 1013.73 4139.49 1013.92 4141.48 1014.29C4143.47 1014.54 4145.64 1015.03 4148 1015.77Z" fill="#F1EFDE"/>
<path d="M3923.79 841.785L3871.71 841.115C3867.35 841.059 3863.13 842.831 3860.13 845.988C3857.13 849.14 3855.57 853.437 3855.86 857.775L3859.63 915.239C3860.16 923.33 3866.95 929.75 3875.08 929.855L3890.04 930.048L3889.25 991.39V1036.47V1074.49H3903.16V1036.47L3902.37 991.56L3903.16 930.217L3918.12 930.41C3922.41 930.465 3926.36 928.756 3929.25 925.944C3931.85 923.422 3933.59 920.014 3933.94 916.196L3939.19 858.847C3939.59 854.519 3938.15 850.184 3935.23 846.955C3932.31 843.725 3928.14 841.841 3923.79 841.785ZM3880.05 916.831L3875.24 916.769C3873.92 916.752 3872.81 915.704 3872.72 914.384L3868.95 856.919C3868.89 855.95 3869.36 855.298 3869.65 854.996C3869.67 854.973 3869.69 854.95 3869.72 854.926C3870.03 854.622 3870.64 854.189 3871.54 854.2L3879.22 854.299L3880.05 916.831ZM3900.36 917.093L3893.17 917L3892.35 854.469L3902.81 854.603L3900.36 917.093ZM3925.48 855.715C3925.76 856.024 3926.22 856.688 3926.13 857.655L3920.87 915.004C3920.75 916.321 3919.62 917.341 3918.29 917.323L3913.49 917.261L3915.93 854.772L3923.61 854.871C3924.59 854.883 3925.2 855.405 3925.48 855.715Z" fill="#F1EFDE"/>
<path d="M3669.83 995.517C3665.68 992.76 3663.21 988.148 3663.21 983.178C3663.21 978.209 3665.68 973.596 3669.83 970.839C3671.85 969.503 3674.55 970.048 3675.89 972.048C3677.22 974.052 3676.68 976.757 3674.67 978.09C3672.94 979.242 3671.94 981.097 3671.94 983.178C3671.94 985.259 3672.94 987.114 3674.67 988.267C3678.82 991.024 3681.29 995.636 3681.29 1000.61C3681.29 1005.58 3678.82 1010.19 3674.67 1012.94C3672.63 1014.3 3669.93 1013.71 3668.62 1011.74C3667.28 1009.73 3667.82 1007.03 3669.83 1005.69C3671.56 1004.54 3672.56 1002.69 3672.56 1000.61C3672.56 998.524 3671.56 996.67 3669.83 995.517Z" fill="#F1EFDE"/>
<path d="M3645.33 995.517C3641.18 992.76 3638.71 988.148 3638.71 983.178C3638.71 978.209 3641.18 973.596 3645.33 970.839C3647.34 969.503 3650.06 970.048 3651.39 972.048C3652.73 974.052 3652.18 976.757 3650.18 978.09C3648.44 979.242 3647.45 981.097 3647.45 983.178C3647.45 985.259 3648.44 987.114 3650.18 988.267C3654.32 991.024 3656.8 995.636 3656.8 1000.61C3656.8 1005.58 3654.32 1010.19 3650.18 1012.94C3649.43 1013.44 3648.59 1013.68 3647.76 1013.68C3646.35 1013.68 3644.96 1013 3644.12 1011.74C3642.78 1009.73 3643.32 1007.03 3645.33 1005.69C3647.07 1004.54 3648.06 1002.69 3648.06 1000.61C3648.06 998.524 3647.07 996.67 3645.33 995.517Z" fill="#F1EFDE"/>
<path d="M3619.93 995.517C3615.79 992.76 3613.31 988.148 3613.31 983.178C3613.31 978.209 3615.79 973.596 3619.93 970.839C3621.95 969.503 3624.66 970.048 3625.99 972.048C3627.33 974.052 3626.79 976.757 3624.78 978.09C3623.04 979.242 3622.05 981.097 3622.05 983.178C3622.05 985.259 3623.04 987.114 3624.78 988.267C3628.93 991.024 3631.4 995.636 3631.4 1000.61C3631.4 1005.58 3628.93 1010.19 3624.78 1012.94C3622.74 1014.3 3620.04 1013.71 3618.72 1011.74C3617.38 1009.73 3617.93 1007.03 3619.93 1005.69C3621.67 1004.54 3622.67 1002.69 3622.67 1000.61C3622.67 998.524 3621.67 996.67 3619.93 995.517Z" fill="#F1EFDE"/>
<path d="M3599.35 1019.68H3693.04C3695.62 1019.68 3697.71 1024.88 3697.71 1031.3V1054.53C3697.71 1086.56 3687.23 1112.62 3674.36 1112.62H3618.02C3605.15 1112.62 3594.68 1086.56 3594.68 1054.53V1031.3C3594.68 1024.88 3596.77 1019.68 3599.35 1019.68Z" fill="#F1EFDE"/>
<path d="M3725.14 1069.25C3725.14 1086.36 3712.62 1100.23 3697.18 1100.23C3681.74 1100.23 3669.23 1086.36 3669.23 1069.25C3669.23 1052.14 3681.74 1038.27 3697.18 1038.27C3712.62 1038.27 3725.14 1052.14 3725.14 1069.25ZM3683.3 1069.25C3683.3 1077.75 3689.52 1084.63 3697.18 1084.63C3704.85 1084.63 3711.06 1077.75 3711.06 1069.25C3711.06 1060.75 3704.85 1053.87 3697.18 1053.87C3689.52 1053.87 3683.3 1060.75 3683.3 1069.25Z" fill="#F1EFDE"/>
<path d="M3113.67 2523.49V2588.79H3178.97V2523.49V2458.08H3113.67V2523.49Z" fill="#263238"/>
<path d="M3178.97 2131.55H3113.67V2196.86H3178.97V2131.55Z" fill="#263238"/>
<path d="M3582.61 2850.64H3517.31V2915.95H3582.61V2850.64Z" fill="#263238"/>
<path d="M3178.97 2262.16V2327.47H3113.67V2392.77H3178.97V2458.08H3244.27H3309.68V2523.49H3374.99V2458.08H3440.29V2392.77V2327.47H3374.99V2392.77H3309.68H3244.27V2327.47V2262.16V2196.86H3178.97V2262.16Z" fill="#263238"/>
<path d="M3309.68 2131.55H3244.27V2196.86H3309.68H3374.99V2131.55H3309.68Z" fill="#263238"/>
<path d="M3603.6 2656.63H3638.63V2591.32H3603.6H3568.47V2656.63H3603.6Z" fill="#263238"/>
<path d="M3440.29 2196.86H3374.98V2262.16H3440.29V2196.86Z" fill="#263238"/>
<path d="M3897.52 2458.08H3832.22V2523.38H3897.52V2458.08Z" fill="#263238"/>
<path d="M3962.83 1739.62H3897.53V1804.93H3962.83V1739.62Z" fill="#263238"/>
<path d="M3570.9 2262.16V2196.86H3636.21V2131.55H3570.9V2066.25H3505.6V2131.55H3440.29V2196.86H3505.6V2262.16V2327.47V2392.77V2458.08H3570.9V2392.77V2327.47H3636.21V2262.16H3570.9Z" fill="#263238"/>
<path d="M3897.52 2915.31H3962.83V2850.01H3897.52H3832.22V2915.31H3897.52Z" fill="#263238"/>
<path d="M3832.22 1739.62H3766.92V1804.93H3832.22V1739.62Z" fill="#263238"/>
<path d="M3815.87 2262.16V2196.86H3750.56V2131.55H3685.26V2196.86V2262.16H3619.95V2327.47H3685.26H3750.56V2262.16H3815.87Z" fill="#263238"/>
<path d="M4184.49 2131.55H4119.18V2196.86H4184.49V2131.55Z" fill="#263238"/>
<path d="M3507.49 2458.08H3442.19V2523.38H3507.49V2458.08Z" fill="#263238"/>
<path d="M3766.91 2066.25V2000.94H3832.22V1935.53H3897.52H3962.83V1870.23H3897.52V1804.93H3832.22V1870.23H3766.91V1935.53H3701.5V2000.94H3636.2V2066.25H3701.5H3766.91Z" fill="#263238"/>
<path d="M3766.91 2523.49V2458.08H3832.22V2392.77H3766.91H3701.5V2458.08H3636.2V2523.49H3701.5H3766.91Z" fill="#263238"/>
<path d="M3962.83 2784.7V2719.29H3897.53H3832.22V2653.99H3766.92V2719.29H3701.51V2784.7H3636.2H3570.9V2850.01H3636.2H3701.51H3766.92V2784.7H3832.22V2850.01H3897.53V2784.7H3962.83Z" fill="#263238"/>
<path d="M3701.51 1804.93V1739.62H3636.2H3570.9V1804.93H3505.59V1870.23H3570.9H3636.2V1804.93H3701.51Z" fill="#263238"/>
<path d="M3701.5 1870.23H3636.2V1935.53H3701.5V1870.23Z" fill="#263238"/>
<path d="M3864.82 2131.55H3799.52V2196.86V2262.16V2327.47H3864.82H3930.13V2262.16H3864.82V2196.86H3930.13V2131.55H3995.43V2066.25H3930.13V2000.94H3864.82V2066.25V2131.55Z" fill="#263238"/>
<path d="M3636.2 1935.53H3570.9V2000.84H3636.2V1935.53Z" fill="#263238"/>
<path d="M3832.22 2588.79V2654.09H3897.52H3962.83V2588.79H4028.13H4093.44V2523.49H4028.13H3962.83H3897.52V2588.79H3832.22Z" fill="#263238"/>
<path d="M4184.49 2327.47H4119.18V2392.77H4184.49V2327.47Z" fill="#263238"/>
<path d="M3962.83 2392.77H3897.53V2458.08H3962.83V2392.77Z" fill="#263238"/>
<path d="M4126.15 2196.86H4060.84H3995.43V2262.16H4060.84V2327.47H4126.15V2262.16V2196.86Z" fill="#263238"/>
<path d="M4093.44 2392.77H4028.14V2458.08H4093.44V2392.77Z" fill="#263238"/>
<path d="M3374.99 2785.97H3571V2523.38H3308.41V2588.79H3244.38V2654.09H3308.41V2719.4H3244.38V2784.7H3308.41V2785.97H3309.68V2850.01H3244.38V2980.62H3309.68V2915.1H3374.99V2785.97ZM3520.68 2573.6V2736.91H3357.37V2573.6H3520.68Z" fill="#263238"/>
<path d="M4224.05 2523.49H4289.36V2458.08H4224.05H4158.75H4093.44V2523.49H4158.75H4224.05Z" fill="#263238"/>
<path d="M4224.05 2262.16H4289.36V2196.86V2131.55H4224.05V2196.86V2262.16Z" fill="#263238"/>
<path d="M3704.04 2591.32H3638.63V2656.63V2721.93H3704.04V2656.63V2591.32Z" fill="#263238"/>
<path d="M4354.66 2523.49H4289.35V2588.79H4354.66V2523.49Z" fill="#263238"/>
<path d="M4354.76 2392.77V2327.47H4289.35V2392.77V2458.08H4354.76V2392.77Z" fill="#263238"/>
<path d="M3178.97 2850.01H3113.67V2915.31V2980.62H3178.97V2915.31V2850.01Z" fill="#263238"/>
<path d="M4354.76 2066.25V1739.2H4027.71V2066.25H4354.76ZM4077.09 2017.19V1788.57H4305.71V2017.19H4077.09Z" fill="#263238"/>
<path d="M4256.75 1837.63H4126.15V1968.24H4256.75V1837.63Z" fill="#263238"/>
<path d="M4354.76 2654.09H4027.71V2980.62H4354.76V2654.09ZM4077.09 2931.67V2703.05H4305.71V2931.67H4077.09Z" fill="#263238"/>
<path d="M4256.75 2752H4126.15V2882.61H4256.75V2752Z" fill="#263238"/>
<path d="M3112.92 1739.62V2066.67H3439.23V1739.62H3112.92ZM3390.49 1788.57V2017.19H3161.87V1788.57H3390.49Z" fill="#263238"/>
<path d="M3341.44 1837.63H3210.83V1968.24H3341.44V1837.63Z" fill="#263238"/>
<path d="M3019.76 1967.29V1735.19C3018.28 1713.89 3024.83 1692.81 3038.12 1676.11C3046.08 1667.32 3055.88 1660.4 3066.82 1655.84C3077.76 1651.29 3089.58 1649.2 3101.42 1649.73H3345.34C3347.27 1649.73 3349.12 1648.97 3350.48 1647.6C3351.85 1646.24 3352.61 1644.39 3352.61 1642.46C3352.61 1640.52 3351.85 1638.67 3350.48 1637.31C3349.12 1635.94 3347.27 1635.18 3345.34 1635.18H3104.37C3083.97 1634.15 3063.72 1639.26 3046.24 1649.84C3033.68 1658.21 3023.36 1669.52 3016.19 1682.8C3009.01 1696.08 3005.21 1710.92 3005.1 1726.01C3004.46 1764.2 3005.1 1802.5 3005.1 1840.58V1967.18C3005.31 1968.98 3006.18 1970.63 3007.53 1971.83C3008.88 1973.03 3010.62 1973.69 3012.43 1973.69C3014.24 1973.69 3015.98 1973.03 3017.33 1971.83C3018.68 1970.63 3019.55 1968.98 3019.76 1967.18V1967.29Z" fill="#EE4444"/>
<path d="M3324.24 3090.97H3092.14C3070.85 3092.4 3049.79 3085.86 3033.06 3072.61C3024.29 3064.65 3017.37 3054.84 3012.81 3043.9C3008.26 3032.96 3006.16 3021.15 3006.68 3009.31V2765.08C3006.68 2763.15 3005.92 2761.3 3004.55 2759.93C3003.19 2758.57 3001.34 2757.8 2999.41 2757.8C2997.47 2757.8 2995.62 2758.57 2994.26 2759.93C2992.89 2761.3 2992.13 2763.15 2992.13 2765.08V3006.36C2991.11 3026.76 2996.22 3047.01 3006.79 3064.49C3015.15 3077.05 3026.47 3087.35 3039.76 3094.51C3053.04 3101.67 3067.87 3105.45 3082.96 3105.53C3121.15 3106.16 3159.34 3105.53 3197.53 3105.53H3324.13C3326.06 3105.53 3327.92 3104.76 3329.28 3103.4C3330.65 3102.03 3331.41 3100.18 3331.41 3098.25C3331.41 3096.32 3330.65 3094.47 3329.28 3093.1C3327.92 3091.74 3326.06 3090.97 3324.13 3090.97H3324.24Z" fill="#EE4444"/>
<path d="M4440.85 2762.76V2994.86C4442.34 3016.16 4435.79 3037.24 4422.5 3053.94C4414.54 3062.73 4404.74 3069.66 4393.8 3074.22C4382.85 3078.78 4371.04 3080.86 4359.2 3080.31H4114.96C4113.03 3080.31 4111.18 3081.08 4109.81 3082.45C4108.45 3083.81 4107.68 3085.66 4107.68 3087.59C4107.68 3089.53 4108.45 3091.38 4109.81 3092.74C4111.18 3094.11 4113.03 3094.87 4114.96 3094.87H4356.24C4376.65 3095.9 4396.89 3090.79 4414.37 3080.21C4426.93 3071.85 4437.24 3060.52 4444.39 3047.24C4451.55 3033.96 4455.33 3019.12 4455.41 3004.04C4456.15 2965.85 4455.41 2927.66 4455.41 2889.47V2762.87C4455.41 2760.93 4454.64 2759.08 4453.28 2757.72C4451.91 2756.35 4450.06 2755.59 4448.13 2755.59C4446.2 2755.59 4444.35 2756.35 4442.98 2757.72C4441.62 2759.08 4440.85 2760.93 4440.85 2762.87V2762.76Z" fill="#EE4444"/>
<path d="M4119.18 1649.84H4351.28C4372.59 1648.39 4393.67 1654.97 4410.36 1668.3C4419.18 1676.24 4426.12 1686.03 4430.68 1696.98C4435.24 1707.93 4437.31 1719.76 4436.74 1731.6V1976.15C4436.74 1978.08 4437.51 1979.93 4438.87 1981.3C4440.24 1982.66 4442.09 1983.43 4444.02 1983.43C4445.95 1983.43 4447.8 1982.66 4449.17 1981.3C4450.53 1979.93 4451.3 1978.08 4451.3 1976.15V1734.56C4452.32 1714.12 4447.22 1693.84 4436.63 1676.32C4428.27 1663.76 4416.95 1653.46 4403.67 1646.3C4390.39 1639.14 4375.55 1635.36 4360.46 1635.28C4322.27 1634.65 4284.08 1635.28 4245.89 1635.28H4119.29C4117.36 1635.28 4115.51 1636.05 4114.14 1637.41C4112.78 1638.78 4112.01 1640.63 4112.01 1642.56C4112.01 1644.49 4112.78 1646.34 4114.14 1647.71C4115.51 1649.07 4117.36 1649.84 4119.29 1649.84H4119.18Z" fill="#EE4444"/>
<path d="M3128.76 3813H3141.71L3155.01 3765.74H3155.99L3169.28 3813H3182.28L3201.5 3747.55H3188.33L3175.59 3795.4H3174.95L3162.16 3747.55H3149L3136.13 3795.61H3135.49L3122.66 3747.55H3109.49L3128.76 3813ZM3227.78 3813H3240.73L3254.03 3765.74H3255.01L3268.3 3813H3281.3L3300.52 3747.55H3287.35L3274.61 3795.4H3273.97L3261.19 3747.55H3248.02L3235.15 3795.61H3234.51L3221.69 3747.55H3208.52L3227.78 3813ZM3326.8 3813H3339.76L3353.05 3765.74H3354.03L3367.33 3813H3380.33L3399.54 3747.55H3386.38L3373.63 3795.4H3373L3360.21 3747.55H3347.04L3334.17 3795.61H3333.54L3320.71 3747.55H3307.54L3326.8 3813ZM3411.12 3813.81C3415.77 3813.81 3419.65 3810.02 3419.65 3805.29C3419.65 3800.64 3415.77 3796.81 3411.12 3796.81C3406.44 3796.81 3402.6 3800.64 3402.6 3805.29C3402.6 3810.02 3406.44 3813.81 3411.12 3813.81ZM3485.76 3763.53C3483.12 3753.34 3475.15 3746.69 3461 3746.69C3446.22 3746.69 3435.73 3754.49 3435.73 3766.08C3435.73 3775.37 3441.36 3781.55 3453.63 3784.28L3464.71 3786.71C3471.02 3788.11 3473.96 3790.93 3473.96 3795.02C3473.96 3800.09 3468.55 3804.05 3460.19 3804.05C3452.57 3804.05 3447.67 3800.77 3446.13 3794.34L3433.82 3796.21C3435.95 3807.8 3445.58 3814.32 3460.28 3814.32C3476.09 3814.32 3487.04 3805.93 3487.04 3794.08C3487.04 3784.83 3481.16 3779.12 3469.14 3776.35L3458.75 3773.97C3451.54 3772.26 3448.43 3769.83 3448.48 3765.4C3448.43 3760.37 3453.89 3756.79 3461.13 3756.79C3469.06 3756.79 3472.72 3761.18 3474.21 3765.57L3485.76 3763.53ZM3528.49 3838.91C3545.15 3838.91 3558.02 3831.28 3558.02 3814.45V3747.55H3545.54V3758.16H3544.6C3542.34 3754.11 3537.83 3746.69 3525.64 3746.69C3509.83 3746.69 3498.19 3759.18 3498.19 3780.02C3498.19 3800.9 3510.08 3812.02 3525.55 3812.02C3537.57 3812.02 3542.21 3805.24 3544.52 3801.07H3545.33V3813.94C3545.33 3824.21 3538.29 3828.64 3528.62 3828.64C3518.01 3828.64 3513.88 3823.31 3511.62 3819.56L3500.67 3824.08C3504.12 3832.09 3512.85 3838.91 3528.49 3838.91ZM3528.37 3801.45C3516.99 3801.45 3511.06 3792.72 3511.06 3779.85C3511.06 3767.28 3516.86 3757.52 3528.37 3757.52C3539.49 3757.52 3545.45 3766.59 3545.45 3779.85C3545.45 3793.36 3539.36 3801.45 3528.37 3801.45ZM3576.13 3813H3589.3V3774.95H3632.81V3813H3646.02V3725.73H3632.81V3763.65H3589.3V3725.73H3576.13V3813ZM3683.22 3814.45C3694.05 3814.45 3700.14 3808.95 3702.57 3804.05H3703.08V3813H3715.52V3769.53C3715.52 3750.49 3700.52 3746.69 3690.13 3746.69C3678.28 3746.69 3667.37 3751.47 3663.11 3763.4L3675.08 3766.12C3676.96 3761.48 3681.73 3757.01 3690.3 3757.01C3698.52 3757.01 3702.74 3761.31 3702.74 3768.72V3769.02C3702.74 3773.67 3697.97 3773.58 3686.21 3774.95C3673.81 3776.39 3661.11 3779.63 3661.11 3794.51C3661.11 3807.38 3670.78 3814.45 3683.22 3814.45ZM3685.99 3804.22C3678.79 3804.22 3673.59 3800.98 3673.59 3794.68C3673.59 3787.86 3679.64 3785.43 3687.02 3784.45C3691.15 3783.89 3700.95 3782.79 3702.78 3780.95V3789.39C3702.78 3797.15 3696.6 3804.22 3685.99 3804.22ZM3746.69 3813H3759.64L3772.94 3765.74H3773.92L3787.21 3813H3800.21L3819.43 3747.55H3806.26L3793.52 3795.4H3792.88L3780.09 3747.55H3766.93L3754.06 3795.61H3753.42L3740.59 3747.55H3727.42L3746.69 3813ZM3831.52 3813H3844.26V3789.78L3850.61 3783.43L3872.85 3813H3888.49L3860.2 3775.63L3886.7 3747.55H3871.45L3845.37 3775.24H3844.26V3725.73H3831.52V3813ZM3923.83 3814.32C3938.11 3814.32 3948.21 3807.29 3951.1 3796.64L3939.04 3794.46C3936.74 3800.64 3931.2 3803.8 3923.96 3803.8C3913.05 3803.8 3905.72 3796.72 3905.38 3784.11H3951.91V3779.59C3951.91 3755.94 3937.76 3746.69 3922.94 3746.69C3904.7 3746.69 3892.68 3760.59 3892.68 3780.7C3892.68 3801.03 3904.53 3814.32 3923.83 3814.32ZM3905.42 3774.56C3905.93 3765.27 3912.67 3757.22 3923.02 3757.22C3932.91 3757.22 3939.38 3764.55 3939.43 3774.56H3905.42ZM3966.05 3813H3978.79V3773.03C3978.79 3764.46 3985.4 3758.28 3994.43 3758.28C3997.07 3758.28 4000.06 3758.75 4001.08 3759.05V3746.86C3999.8 3746.69 3997.29 3746.57 3995.67 3746.57C3988 3746.57 3981.43 3750.91 3979.05 3757.94H3978.37V3747.55H3966.05V3813ZM4013 3813.81C4017.64 3813.81 4021.52 3810.02 4021.52 3805.29C4021.52 3800.64 4017.64 3796.81 4013 3796.81C4008.31 3796.81 4004.48 3800.64 4004.48 3805.29C4004.48 3810.02 4008.31 3813.81 4013 3813.81ZM4066.16 3814.32C4081.63 3814.32 4091.64 3805.03 4093.05 3792.29H4080.65C4079.03 3799.36 4073.53 3803.54 4066.25 3803.54C4055.46 3803.54 4048.52 3794.55 4048.52 3780.27C4048.52 3766.25 4055.59 3757.43 4066.25 3757.43C4074.34 3757.43 4079.28 3762.55 4080.65 3768.68H4093.05C4091.69 3755.47 4080.9 3746.69 4066.03 3746.69C4047.58 3746.69 4035.65 3760.59 4035.65 3780.57C4035.65 3800.3 4047.15 3814.32 4066.16 3814.32ZM4134.25 3814.32C4152.7 3814.32 4164.76 3800.81 4164.76 3780.57C4164.76 3760.2 4152.7 3746.69 4134.25 3746.69C4115.79 3746.69 4103.73 3760.2 4103.73 3780.57C4103.73 3800.81 4115.79 3814.32 4134.25 3814.32ZM4134.29 3803.62C4122.23 3803.62 4116.6 3793.1 4116.6 3780.53C4116.6 3768 4122.23 3757.35 4134.29 3757.35C4146.26 3757.35 4151.89 3768 4151.89 3780.53C4151.89 3793.1 4146.26 3803.62 4134.29 3803.62ZM4178.98 3813H4191.72V3772.64C4191.72 3763.82 4197.9 3757.69 4205.14 3757.69C4212.22 3757.69 4217.12 3762.38 4217.12 3769.49V3813H4229.82V3771.28C4229.82 3763.4 4234.63 3757.69 4242.94 3757.69C4249.68 3757.69 4255.22 3761.44 4255.22 3770.3V3813H4267.96V3769.11C4267.96 3754.15 4259.6 3746.69 4247.76 3746.69C4238.34 3746.69 4231.27 3751.21 4228.11 3758.2H4227.43C4224.58 3751.04 4218.57 3746.69 4209.83 3746.69C4201.18 3746.69 4194.75 3751 4192.02 3758.2H4191.21V3747.55H4178.98V3813Z" fill="#455A64"/>
</svg>
